<?xml version="1.0" standalone="no"?>
<!DOCTYPE svg PUBLIC "-//W3C//DTD SVG 20010904//EN"
 "http://www.w3.org/TR/2001/REC-SVG-20010904/DTD/svg10.dtd">
<svg version="1.0" xmlns="http://www.w3.org/2000/svg"
 width="626.000000pt" height="351.000000pt" viewBox="0 0 626.000000 351.000000"
 preserveAspectRatio="xMidYMid meet">

<g transform="translate(0.000000,351.000000) scale(0.100000,-0.100000)"
fill="#000000" stroke="none">
<path d="M1261 3504 c10 -3 19 -14 22 -24 5 -19 7 -19 53 -3 55 18 82 36 44
29 -14 -2 -27 -5 -30 -6 -6 -3 -4 -3 -60 3 -25 3 -38 3 -29 1z"/>
<path d="M1450 3473 c-19 -22 -48 -48 -64 -60 l-30 -20 30 -1 c26 0 185 75
208 98 18 18 0 18 -51 1 -51 -17 -52 -17 -55 1 -3 16 -9 13 -38 -19z"/>
<path d="M1735 3500 c-4 -6 -4 -22 -1 -34 4 -15 0 -28 -9 -36 -8 -7 -15 -18
-15 -24 0 -13 -96 -117 -102 -111 -2 3 -20 0 -39 -5 -60 -18 -106 -14 -182 15
-72 28 -75 30 -66 53 5 14 8 26 6 28 -7 7 -77 -9 -77 -18 0 -22 82 -96 120
-107 27 -8 38 -16 33 -24 -11 -17 -13 -38 -3 -32 4 3 13 -2 20 -10 7 -8 9 -15
6 -15 -4 0 2 -13 13 -29 11 -15 18 -31 14 -34 -3 -4 0 -13 7 -22 7 -8 10 -20
8 -27 -3 -7 4 -21 14 -30 17 -17 18 -17 18 17 0 20 5 35 11 35 12 0 8 -85 -6
-125 -7 -19 -7 -19 8 1 9 11 19 33 23 48 8 34 47 55 68 37 11 -9 17 -8 30 4 9
9 16 20 16 23 0 4 9 13 21 20 19 12 20 11 14 -25 l-6 -38 16 36 c9 20 26 41
38 46 25 12 65 0 73 -21 3 -8 15 -16 27 -19 25 -7 -78 93 -128 124 -44 28 -26
23 49 -12 37 -17 69 -29 71 -27 3 2 -4 14 -15 26 -20 21 -20 21 1 27 22 7 74
-10 102 -33 35 -31 15 1 -25 40 -24 22 -42 44 -40 49 1 6 -1 8 -6 5 -4 -2 -14
-1 -21 4 -8 4 -28 4 -44 -1 -20 -5 -35 -5 -41 1 -9 9 11 15 37 11 4 0 6 2 6 7
-3 20 3 30 26 40 24 11 24 11 8 58 -14 42 -14 49 1 80 16 34 16 34 -9 34 -13
0 -27 -5 -30 -10 -5 -8 -11 -8 -20 0 -10 8 -15 8 -20 0z"/>
<path d="M1993 3498 c2 -7 -2 -35 -9 -63 -22 -82 -14 -86 12 -5 13 41 24 76
24 78 0 1 -7 2 -16 2 -9 0 -14 -6 -11 -12z"/>
<path d="M3099 3508 c0 -2 -2 -14 -5 -28 -4 -24 -3 -24 11 -6 17 23 19 36 5
36 -5 0 -10 -1 -11 -2z"/>
<path d="M5493 3491 c-32 -27 -28 -34 7 -16 17 9 28 20 25 25 -8 12 -6 13 -32
-9z"/>
<path d="M5670 3494 c0 -11 5 -14 16 -10 9 3 20 6 25 6 5 0 9 5 9 10 0 6 -11
10 -25 10 -16 0 -25 -6 -25 -16z"/>
<path d="M5430 3469 c0 -38 24 -35 28 4 2 19 -1 27 -12 27 -11 0 -16 -10 -16
-31z"/>
<path d="M3520 3476 c0 -2 8 -10 18 -17 15 -13 16 -12 3 4 -13 16 -21 21 -21
13z"/>
<path d="M2980 3438 c0 -10 -4 -18 -9 -18 -5 0 1 -19 13 -42 14 -29 22 -37 24
-26 2 11 9 15 20 11 15 -6 15 -5 3 10 -7 9 -10 24 -7 33 4 9 4 25 1 35 -8 23
-45 21 -45 -3z"/>
<path d="M1270 3425 c-14 -8 -20 -14 -14 -15 5 0 19 7 30 15 24 18 16 19 -16
0z"/>
<path d="M5014 3420 c5 -24 4 -24 -9 -6 -14 19 -15 19 -15 -7 0 -15 -9 -36
-20 -47 l-20 -20 0 26 c0 14 -4 23 -9 20 -11 -7 -11 -56 1 -81 7 -16 5 -16
-11 4 -12 13 -21 33 -22 45 0 20 -1 20 -9 1 -8 -21 -13 -15 -23 30 -3 11 -5 5
-6 -15 -1 -27 -4 -31 -11 -20 -8 12 -10 10 -10 -10 -1 -22 -4 -19 -26 20 -21
38 -24 40 -18 15 3 -16 7 -36 7 -43 1 -21 55 -61 92 -68 21 -4 48 -1 66 6 36
15 70 56 63 75 -3 8 0 22 6 32 11 17 11 17 5 -2 -6 -19 -5 -19 10 -4 12 12 15
24 10 40 -7 21 -8 21 -18 4 -9 -17 -11 -16 -24 6 l-14 24 5 -25z m-14 -79 c-6
-12 -16 -21 -23 -21 -8 0 -9 2 -1 8 6 4 15 18 19 32 5 14 10 20 12 13 2 -7 -1
-21 -7 -32z"/>
<path d="M1061 3404 c7 -8 21 -20 32 -25 15 -9 18 -8 15 7 -1 10 -16 21 -31
25 -24 7 -27 6 -16 -7z"/>
<path d="M2460 3400 c0 -18 3 -19 20 -10 22 12 18 30 -6 30 -8 0 -14 -9 -14
-20z"/>
<path d="M1145 3380 l-30 -20 37 0 c26 0 36 4 34 15 -4 24 -11 25 -41 5z"/>
<path d="M2871 3364 c6 -21 13 -41 16 -44 9 -9 -9 65 -18 74 -4 5 -3 -8 2 -30z"/>
<path d="M2447 3353 c-12 -12 -7 -22 8 -17 8 4 15 10 15 15 0 11 -14 12 -23 2z"/>
<path d="M1821 3322 c-14 -27 -14 -32 3 -32 18 0 30 30 17 43 -6 6 -13 1 -20
-11z"/>
<path d="M2301 3323 c7 -10 22 -26 34 -35 17 -15 18 -18 3 -18 -17 0 -58 36
-58 52 0 4 -4 8 -10 8 -5 0 -10 -14 -10 -30 0 -24 12 -42 50 -80 28 -28 53
-50 56 -50 3 0 2 21 -2 46 -5 34 -4 45 5 40 7 -5 10 1 8 16 -2 20 2 23 31 20
28 -3 33 0 30 15 -2 14 -13 18 -46 19 -23 0 -42 -3 -42 -8 0 -14 -30 -9 -36 7
-4 8 -11 15 -16 15 -6 0 -5 -8 3 -17z"/>
<path d="M3067 3323 c-4 -3 -7 -37 -7 -74 0 -68 15 -123 32 -113 5 3 7 0 6 -8
-2 -9 10 -13 38 -14 23 -1 48 -5 55 -9 8 -5 4 3 -8 16 -19 21 -40 63 -82 163
-10 24 -14 27 -23 15 -7 -11 -9 -9 -5 9 5 23 4 26 -6 15z m78 -164 c9 -17 14
-34 10 -37 -8 -8 -32 19 -40 46 -10 33 12 27 30 -9z"/>
<path d="M3522 3322 c-10 -3 -7 -9 8 -19 17 -12 24 -13 33 -3 9 10 8 12 -5 7
-10 -3 -18 0 -20 7 -2 7 -9 11 -16 8z"/>
<path d="M4342 3295 c-15 -33 -15 -62 -1 -71 18 -11 53 -97 51 -126 -1 -14 5
-34 14 -42 14 -15 18 -13 44 26 33 49 28 62 -24 62 -26 0 -36 5 -40 20 -3 11
-3 22 -1 25 3 2 5 -1 5 -7 0 -7 11 -12 25 -12 14 0 25 -4 25 -10 0 -5 5 -10
10 -10 7 0 7 6 0 19 -14 28 -12 44 5 37 8 -3 15 -1 15 4 0 9 -8 12 -26 9 -11
-1 -24 25 -24 48 0 12 -8 26 -17 32 -14 7 -22 2 -40 -27 -12 -21 -23 -31 -23
-23 0 8 7 22 14 30 9 9 12 22 7 29 -5 9 -11 5 -19 -13z"/>
<path d="M4122 3287 c-12 -13 -22 -29 -22 -36 0 -7 -4 -9 -10 -6 -5 3 -10 1
-10 -5 0 -7 7 -9 16 -6 9 3 18 6 20 6 2 0 4 9 4 21 0 11 4 18 9 15 5 -3 11 3
14 14 6 25 5 25 -21 -3z"/>
<path d="M4166 3303 c-3 -3 -6 -21 -6 -40 0 -26 6 -36 25 -45 14 -6 25 -14 25
-18 0 -13 38 -18 50 -6 9 8 10 1 6 -29 -5 -30 -4 -35 3 -19 22 50 41 25 54
-71 3 -24 4 -22 6 11 0 28 6 44 17 48 12 4 14 1 9 -14 -3 -11 -2 -28 4 -37 20
-34 12 49 -9 94 -15 34 -23 41 -37 36 -10 -3 -15 -3 -11 2 12 12 -40 55 -67
55 -13 0 -27 5 -30 10 -4 6 -11 7 -17 4 -6 -4 -8 -2 -4 4 7 12 -8 25 -18 15z
m118 -68 c3 -8 3 -15 0 -15 -3 0 -12 7 -20 15 -13 13 -13 15 -1 15 8 0 17 -7
21 -15z m55 -84 c1 -10 -3 -9 -13 4 -8 11 -11 26 -8 34 4 12 7 11 13 -5 4 -10
8 -25 8 -33z"/>
<path d="M4440 3301 c0 -6 4 -13 10 -16 6 -3 7 1 4 9 -7 18 -14 21 -14 7z"/>
<path d="M2935 3266 c10 -14 19 -26 22 -26 7 0 -17 39 -28 46 -6 3 -3 -5 6
-20z"/>
<path d="M3570 3261 c5 -11 15 -23 21 -27 6 -3 3 5 -6 20 -20 30 -30 35 -15 7z"/>
<path d="M2865 3261 c-3 -5 -1 -12 5 -16 5 -3 10 1 10 9 0 18 -6 21 -15 7z"/>
<path d="M4441 3254 c0 -11 3 -14 6 -6 3 7 2 16 -1 19 -3 4 -6 -2 -5 -13z"/>
<path d="M5608 3250 c-40 -18 -53 -34 -67 -82 -11 -36 -53 -77 -94 -91 -15 -6
-16 -10 -5 -27 11 -17 10 -25 -4 -50 l-17 -29 39 -31 c22 -17 55 -34 74 -37
l36 -6 -23 -23 c-12 -13 -27 -24 -34 -24 -6 0 -18 -9 -25 -19 -21 -29 -101
-12 -146 32 -28 26 -33 28 -30 12 2 -11 10 -19 17 -17 8 2 11 -3 8 -12 -4 -9
-1 -18 5 -22 7 -4 8 -3 4 4 -4 7 -2 12 3 12 6 0 11 -3 11 -8 0 -4 20 -16 45
-27 25 -11 45 -27 45 -35 0 -13 1 -13 10 0 8 12 12 13 19 2 4 -8 10 -12 12
-11 2 2 15 -4 28 -13 21 -15 24 -26 26 -88 3 -66 2 -70 -14 -56 -26 23 -45 5
-37 -35 4 -19 9 -48 12 -65 5 -27 13 -33 55 -46 27 -9 49 -15 49 -13 0 1 -12
28 -26 59 -20 44 -25 67 -21 109 2 28 -2 72 -9 97 -17 54 -16 53 -4 45 6 -4
17 -21 25 -38 13 -28 15 -28 11 -7 -2 14 -6 34 -10 45 -4 11 3 1 16 -23 17
-32 26 -41 40 -36 13 4 18 0 18 -12 0 -10 3 -15 6 -11 3 3 1 22 -6 42 -11 33
-10 39 8 57 l20 21 -29 24 c-16 14 -34 34 -40 45 -10 18 -7 19 31 15 36 -3
110 5 170 18 8 2 21 4 28 4 6 1 12 5 12 11 0 5 -6 8 -12 6 -7 -3 -35 -7 -61
-10 -37 -4 -46 -3 -41 7 5 8 2 7 -9 -2 -14 -11 -17 -11 -17 0 0 10 -2 11 -8 2
-5 -8 -14 -8 -32 3 l-25 15 25 -6 c24 -6 24 -5 6 10 -18 14 -15 15 42 9 37 -4
62 -3 62 3 0 5 -26 21 -57 36 -32 15 -65 31 -73 36 -8 5 -30 16 -48 24 -33 14
-33 14 -8 19 19 4 39 -5 75 -32 28 -21 71 -45 97 -54 52 -18 52 -14 -3 21 -21
14 -31 22 -23 20 50 -16 48 -14 -15 18 l-70 36 48 -4 c33 -3 57 -13 75 -29 15
-13 36 -30 47 -37 11 -7 2 3 -20 24 -38 35 -39 37 -12 31 15 -3 39 -8 55 -11
26 -5 26 -5 -3 6 -16 6 -36 13 -44 15 -11 3 -9 10 9 29 12 13 19 29 15 35 -10
16 -54 4 -82 -22 -11 -11 -29 -18 -37 -16 -14 2 -11 9 12 33 16 17 42 40 58
53 27 21 28 23 11 33 -12 7 -16 17 -12 30 5 15 1 19 -17 20 -83 5 -121 2 -150
-11z"/>
<path d="M2235 3236 c-11 -6 -21 -12 -23 -12 -7 -3 -11 -51 -6 -66 9 -29 48
-16 52 16 3 22 6 25 18 15 19 -15 18 -6 -4 29 -15 25 -20 28 -37 18z"/>
<path d="M2407 3219 c4 -13 8 -18 11 -10 2 7 -1 18 -6 23 -8 8 -9 4 -5 -13z"/>
<path d="M2945 3200 c3 -19 10 -39 16 -45 7 -7 8 -1 3 20 -11 46 -26 67 -19
25z"/>
<path d="M4062 3210 c0 -14 2 -19 5 -12 2 6 2 18 0 25 -3 6 -5 1 -5 -13z"/>
<path d="M2310 3167 c0 -14 5 -29 10 -32 7 -4 8 3 4 22 -9 38 -14 42 -14 10z"/>
<path d="M1045 3160 c36 -24 46 -25 39 -6 -3 8 -12 12 -19 10 -7 -3 -16 -1
-20 5 -3 6 -12 11 -18 11 -7 0 2 -9 18 -20z"/>
<path d="M2606 3139 c-35 -29 -37 -35 -31 -68 8 -40 24 -75 32 -68 2 3 0 14
-6 25 -8 15 -6 23 9 37 19 18 54 105 42 105 -4 0 -25 -14 -46 -31z"/>
<path d="M2731 3134 c0 -11 3 -14 6 -6 3 7 2 16 -1 19 -3 4 -6 -2 -5 -13z"/>
<path d="M4280 3118 c0 -7 4 -19 9 -27 6 -9 9 -5 9 13 0 14 -4 26 -9 26 -5 0
-9 -6 -9 -12z"/>
<path d="M5385 3119 c-11 -17 1 -21 15 -4 8 9 8 15 2 15 -6 0 -14 -5 -17 -11z"/>
<path d="M4187 3073 c-3 -3 10 -20 30 -38 20 -18 33 -37 29 -43 -7 -12 16 -22
49 -22 40 0 36 16 -13 51 -26 18 -49 36 -52 39 -8 10 -38 19 -43 13z"/>
<path d="M4296 3045 c4 -8 8 -15 10 -15 2 0 4 7 4 15 0 8 -4 15 -10 15 -5 0
-7 -7 -4 -15z"/>
<path d="M2684 3039 c-3 -6 -20 -17 -38 -25 -17 -7 -23 -13 -14 -14 16 0 81
49 66 50 -4 0 -10 -5 -14 -11z"/>
<path d="M3998 3033 c7 -3 16 -2 19 1 4 3 -2 6 -13 5 -11 0 -14 -3 -6 -6z"/>
<path d="M1335 3000 c11 -21 12 -30 4 -30 -8 0 -6 -7 4 -18 10 -10 17 -27 17
-38 1 -14 4 -11 14 11 7 17 20 36 29 44 15 11 11 16 -31 37 -26 13 -48 24 -50
24 -1 0 4 -13 13 -30z"/>
<path d="M4330 3020 c0 -5 5 -10 11 -10 5 0 7 5 4 10 -3 6 -8 10 -11 10 -2 0
-4 -4 -4 -10z"/>
<path d="M1912 2971 c-17 -48 -118 -108 -159 -94 -7 3 -13 0 -13 -6 0 -6 6
-11 13 -11 7 0 23 -11 35 -25 28 -32 20 -32 -21 -1 -18 14 -44 27 -59 31 -36
9 -98 -21 -98 -47 0 -16 5 -19 20 -15 14 4 25 -2 36 -18 9 -14 29 -25 52 -29
20 -3 46 -8 57 -10 11 -2 26 2 34 8 11 8 15 8 18 -1 3 -7 9 -13 14 -13 12 0
-1 60 -20 90 -15 23 -14 24 1 12 10 -8 20 -22 23 -33 7 -20 35 -27 35 -8 0 6
-17 27 -37 45 -23 21 -31 34 -21 34 18 0 50 -27 66 -55 10 -18 11 -18 12 10 0
29 20 110 35 148 4 9 3 17 -3 17 -6 0 -15 -13 -20 -29z m-112 -111 c0 -5 -2
-10 -4 -10 -3 0 -8 5 -11 10 -3 6 -1 10 4 10 6 0 11 -4 11 -10z"/>
<path d="M1651 2963 c-10 -26 -10 -27 4 -9 8 11 15 23 15 28 0 15 -7 8 -19
-19z"/>
<path d="M5225 2949 c-5 -8 -15 -25 -23 -39 -13 -23 -13 -24 2 -6 9 12 16 15
16 7 0 -9 5 -8 16 3 10 11 12 21 6 32 -8 14 -11 14 -17 3z"/>
<path d="M5254 2948 c-3 -4 2 -8 10 -8 8 0 17 4 20 8 3 5 -2 9 -10 9 -8 0 -17
-4 -20 -9z"/>
<path d="M4250 2947 c7 -7 123 -37 128 -32 4 3 -34 15 -103 31 -16 4 -28 4
-25 1z"/>
<path d="M1592 2900 c-6 -11 -12 -29 -12 -40 0 -12 -4 -19 -9 -15 -6 3 -15 -3
-20 -12 -10 -16 -11 -14 -7 7 2 14 -2 30 -8 36 -9 8 -12 1 -13 -30 -2 -50 10
-66 51 -65 17 0 25 3 19 6 -24 9 -12 38 26 68 25 20 36 36 33 48 -6 23 -44 22
-60 -3z"/>
<path d="M4508 2892 c-53 -21 -68 -31 -73 -51 -17 -69 -31 -161 -28 -180 1
-11 -2 -21 -8 -21 -5 0 -7 -4 -4 -10 4 -6 -9 -10 -32 -11 -21 0 -33 -3 -26 -5
7 -3 9 -12 6 -20 -3 -7 -9 -11 -14 -9 -4 3 -14 -3 -20 -14 -7 -10 -19 -17 -28
-14 -13 4 -13 3 -2 -5 16 -12 -3 -27 -21 -16 -7 4 -8 3 -4 -4 8 -14 36 -16 36
-3 0 5 15 12 34 15 22 4 37 14 41 26 8 27 20 25 22 -2 5 -84 48 -184 48 -113
0 30 10 41 60 60 l40 15 -38 -3 c-35 -3 -48 12 -16 19 7 2 28 7 44 10 35 8 45
20 45 54 0 24 -1 24 -20 -7 -20 -33 -40 -43 -40 -20 -1 6 -7 1 -15 -13 -16
-29 -20 -10 -5 23 9 20 9 20 -2 4 -38 -54 -37 -54 -34 -17 2 22 13 47 30 64
14 16 24 31 22 34 -3 2 6 16 20 30 29 32 31 47 4 32 -23 -13 -27 2 -5 20 9 7
13 15 11 17 -6 6 -66 -29 -66 -38 0 -4 -7 -9 -15 -13 -29 -11 -15 13 26 42 23
17 59 34 81 37 26 5 36 10 28 15 -7 5 -19 6 -27 3 -7 -3 -13 1 -13 8 0 12 -2
12 -9 0 -6 -9 -11 -10 -15 -2 -4 6 -12 9 -17 5 -5 -3 -7 -10 -4 -15 3 -5 0 -6
-8 -3 -8 3 -18 1 -22 -5 -3 -6 -10 -11 -15 -11 -17 0 24 41 60 60 37 19 57 23
104 21 22 -1 27 -5 22 -17 -5 -14 -4 -15 9 -4 8 7 15 14 15 16 0 3 -91 45 -94
43 0 -1 -31 -13 -68 -27z m-49 -227 c-21 -35 -29 -42 -29 -26 0 9 39 61 45 61
3 0 -5 -16 -16 -35z"/>
<path d="M4400 2890 c0 -5 4 -10 9 -10 6 0 13 5 16 10 3 6 -1 10 -9 10 -9 0
-16 -4 -16 -10z"/>
<path d="M4289 2868 c-29 -27 -64 -84 -73 -118 -4 -14 7 0 23 30 17 30 45 67
61 83 17 15 26 27 22 27 -5 0 -20 -10 -33 -22z"/>
<path d="M673 2825 c0 -27 2 -38 4 -22 2 15 2 37 0 50 -2 12 -4 0 -4 -28z"/>
<path d="M4065 2829 c-4 -6 -5 -12 -2 -15 2 -3 7 2 10 11 7 17 1 20 -8 4z"/>
<path d="M590 2800 c-18 -16 -36 -30 -41 -30 -5 0 -17 -4 -27 -9 -9 -5 -25
-12 -35 -15 -10 -3 -24 -20 -30 -36 -6 -17 -17 -28 -23 -26 -15 6 -54 -35 -54
-55 0 -8 -7 -24 -15 -35 -8 -10 -15 -33 -15 -51 0 -21 -8 -38 -23 -50 -15 -12
-26 -34 -30 -61 -6 -35 -3 -50 22 -94 16 -29 32 -66 35 -81 6 -24 11 -28 29
-23 12 3 42 -1 65 -10 35 -11 46 -12 56 -2 8 7 24 20 36 28 13 8 32 25 43 38
11 12 27 22 34 22 8 0 11 5 8 10 -3 6 4 10 16 10 19 0 20 -2 8 -17 -8 -12 -6
-11 8 2 30 29 71 140 64 173 -5 25 -6 24 -12 -13 -7 -42 -48 -149 -49 -128 0
6 5 24 11 40 6 15 12 42 14 58 3 27 2 28 -7 9 -5 -12 -21 -27 -34 -33 -27 -12
-31 -6 -9 16 8 8 13 19 10 24 -4 5 -2 9 3 9 6 0 8 10 6 23 -2 12 -2 16 2 10 3
-7 10 -13 15 -13 6 0 7 5 4 10 -4 6 -3 16 2 23 5 7 10 22 11 35 l1 23 -26 -21
c-32 -25 -39 -20 -21 17 8 15 13 36 10 47 -2 10 1 22 7 25 8 5 6 23 -6 62
l-16 54 -13 -44 c-17 -56 -28 -67 -21 -21 3 24 0 41 -12 54 -13 16 -13 18 -1
11 12 -6 12 -5 3 5 -9 10 -5 18 15 36 15 13 24 24 21 24 -4 0 -21 -13 -39 -30z
m-45 -285 c-30 -62 -40 -60 -41 11 -1 35 3 64 8 64 6 0 7 -7 4 -16 -3 -9 -2
-12 5 -9 5 4 8 21 5 38 -5 29 -4 28 15 -11 19 -40 19 -44 4 -77z"/>
<path d="M5836 2805 c-4 -15 -16 -36 -26 -48 -22 -23 -54 -87 -65 -127 -3 -14
6 -3 20 25 15 27 42 66 61 87 35 39 40 53 25 76 -6 10 -10 7 -15 -13z"/>
<path d="M5281 2773 c-1 -12 3 -24 9 -28 5 -3 7 -13 4 -23 -4 -11 -3 -13 3 -5
6 8 12 8 25 -1 10 -7 14 -17 10 -22 -4 -5 3 0 16 11 l23 19 -34 13 c-19 8 -39
24 -45 36 l-11 22 0 -22z"/>
<path d="M6077 2774 c-14 -14 -7 -43 15 -58 30 -21 33 -14 11 28 -10 20 -22
34 -26 30z"/>
<path d="M4282 2745 c6 -13 15 -22 19 -19 5 2 1 14 -9 24 -22 26 -24 25 -10
-5z"/>
<path d="M5357 2756 c-4 -9 -3 -15 2 -12 4 3 16 -3 26 -14 9 -10 31 -22 49
-26 17 -3 47 -16 66 -27 l35 -21 -19 22 c-10 12 -41 29 -69 38 -28 9 -59 26
-67 37 -15 18 -17 19 -23 3z"/>
<path d="M5972 2755 c-11 -13 -9 -15 8 -15 11 0 20 7 20 15 0 19 -11 19 -28 0z"/>
<path d="M6144 2759 c-3 -6 -2 -15 4 -21 7 -7 14 -3 21 11 10 17 9 21 -3 21
-8 0 -18 -5 -22 -11z"/>
<path d="M5248 2686 c-2 -19 0 -32 4 -30 4 3 8 12 8 20 0 12 3 12 20 2 11 -7
20 -18 20 -23 0 -6 6 -19 13 -28 10 -15 12 -13 14 18 1 22 -2 33 -9 29 -6 -4
-13 -3 -17 2 -3 5 -16 17 -27 27 -21 18 -22 18 -26 -17z"/>
<path d="M6172 2702 c-10 -7 -8 -12 6 -25 18 -16 20 -16 37 3 10 11 13 20 7
20 -6 0 -16 2 -24 5 -7 3 -19 1 -26 -3z"/>
<path d="M700 2695 c0 -5 5 -17 10 -25 5 -8 10 -10 10 -5 0 6 -5 17 -10 25 -5
8 -10 11 -10 5z"/>
<path d="M5580 2669 c0 -5 5 -7 10 -4 6 3 10 8 10 11 0 2 -4 4 -10 4 -5 0 -10
-5 -10 -11z"/>
<path d="M57 2654 c3 -8 12 -13 19 -10 17 7 18 -6 2 -22 -9 -9 -9 -12 0 -12 6
0 16 9 22 20 9 16 8 21 -5 25 -8 3 -22 7 -29 9 -10 3 -13 0 -9 -10z"/>
<path d="M6230 2645 c-10 -12 -10 -18 0 -30 18 -22 25 -18 27 15 2 33 -8 38
-27 15z"/>
<path d="M30 2640 c0 -5 5 -10 11 -10 5 0 7 5 4 10 -3 6 -8 10 -11 10 -2 0 -4
-4 -4 -10z"/>
<path d="M4610 2631 c0 -10 -7 -24 -15 -31 -21 -18 -19 -33 3 -19 16 10 31 69
17 69 -3 0 -5 -8 -5 -19z"/>
<path d="M5242 2615 c-1 -30 27 -75 47 -75 18 0 13 15 -13 39 -14 13 -27 33
-29 45 -3 15 -5 12 -5 -9z"/>
<path d="M5436 2595 c-7 -26 -26 -35 -26 -12 0 8 -3 7 -10 -3 -6 -9 -6 -18 0
-24 14 -14 12 -29 -2 -20 -17 11 -48 12 -42 2 3 -4 -5 -8 -17 -8 -21 0 -22 -1
-5 -13 17 -12 17 -15 2 -29 -18 -18 -22 -33 -6 -23 7 4 7 -3 0 -19 -12 -32 -6
-32 45 -1 22 14 48 25 58 25 13 0 16 5 11 24 -3 13 -1 27 5 30 13 8 15 96 2
96 -5 0 -12 -11 -15 -25z"/>
<path d="M1757 2596 c-4 -10 -7 -33 -7 -53 0 -43 -24 -71 -45 -53 -29 24 -15
-8 18 -41 19 -19 37 -46 41 -61 3 -16 11 -28 16 -28 18 0 11 36 -10 55 -16 14
-18 21 -8 28 9 6 8 7 -4 3 -29 -9 -31 14 -4 35 20 16 26 29 25 57 0 20 -4 46
-8 56 -7 18 -8 18 -14 2z"/>
<path d="M80 2580 c-13 -8 -13 -10 2 -10 9 0 20 5 23 10 8 13 -5 13 -25 0z"/>
<path d="M5742 2535 c-1 -22 3 -59 7 -82 6 -30 5 -43 -3 -43 -6 0 -4 -4 3 -9
12 -8 9 -11 -14 -17 -16 -4 -40 -13 -54 -20 l-24 -13 32 -30 c25 -23 43 -31
70 -31 53 0 67 12 48 41 -21 34 -46 115 -56 184 -7 51 -9 54 -9 20z"/>
<path d="M3532 2527 c-38 -46 104 -133 158 -97 13 9 13 12 -4 25 -11 8 -15 19
-10 26 4 7 -9 3 -30 -9 -20 -12 -39 -22 -42 -22 -10 0 -3 18 16 38 19 20 19
22 3 30 -20 10 -48 9 -78 -4 -18 -7 -18 -6 -6 9 7 9 11 17 8 17 -2 0 -9 -6
-15 -13z m44 -34 c-10 -10 -19 5 -10 18 6 11 8 11 12 0 2 -7 1 -15 -2 -18z"/>
<path d="M3459 2493 l-24 -28 30 25 c17 14 32 26 34 28 2 1 0 2 -6 2 -5 0 -20
-12 -34 -27z"/>
<path d="M4220 2509 c0 -5 5 -7 10 -4 6 3 10 8 10 11 0 2 -4 4 -10 4 -5 0 -10
-5 -10 -11z"/>
<path d="M4821 2501 c-10 -7 -7 -9 12 -8 14 1 23 5 20 10 -6 9 -15 9 -32 -2z"/>
<path d="M5271 2493 c-1 -12 4 -25 9 -28 12 -7 12 2 0 30 -8 19 -9 19 -9 -2z"/>
<path d="M3483 2489 c-17 -17 -5 -43 13 -28 15 12 19 39 6 39 -4 0 -13 -5 -19
-11z"/>
<path d="M4758 2493 c7 -3 16 -2 19 1 4 3 -2 6 -13 5 -11 0 -14 -3 -6 -6z"/>
<path d="M5244 2474 c8 -29 26 -48 36 -37 3 3 -1 8 -7 10 -7 3 -13 13 -13 23
0 10 -5 22 -11 26 -9 5 -10 -1 -5 -22z"/>
<path d="M1648 2473 c16 -6 16 -23 -1 -23 -8 0 -29 -21 -47 -47 l-34 -48 53
48 c29 26 57 47 63 47 5 0 2 -7 -6 -16 -23 -23 -20 -30 4 -9 19 17 19 19 4 37
-10 10 -24 18 -33 17 -10 0 -12 -2 -3 -6z"/>
<path d="M3520 2461 c0 -6 -10 -21 -22 -33 -13 -13 -17 -23 -10 -26 6 -2 9 -9
7 -15 -3 -7 11 -19 30 -28 41 -19 42 -16 24 57 -11 41 -29 70 -29 45z"/>
<path d="M1565 2430 c-16 -16 -25 -33 -22 -37 4 -3 7 -1 7 5 0 6 17 23 37 37
21 14 31 25 22 25 -8 0 -28 -13 -44 -30z"/>
<path d="M1780 2450 c0 -5 7 -10 16 -10 8 0 37 -18 63 -40 47 -39 69 -51 55
-29 -4 7 4 20 17 30 18 14 20 19 8 19 -9 0 -22 -7 -29 -15 -12 -14 -15 -13
-34 4 -27 25 -96 55 -96 41z"/>
<path d="M3404 2446 c-19 -15 -19 -15 2 -13 11 0 21 7 21 14 0 16 1 16 -23 -1z"/>
<path d="M3695 2394 c-11 -8 -30 -13 -42 -11 -16 3 -22 -2 -26 -22 -5 -28 22
-108 32 -94 7 11 71 56 71 50 0 -2 -7 -28 -16 -58 -20 -67 -50 -102 -81 -94
-30 7 -124 -30 -153 -60 -13 -13 -26 -22 -31 -20 -4 3 -11 0 -15 -6 -4 -8 -9
-7 -16 2 -6 10 -8 7 -7 -11 1 -14 1 -34 0 -45 -1 -22 -47 -78 -71 -87 -8 -3
-21 -23 -29 -44 -20 -56 -76 -141 -130 -199 l-46 -49 46 39 c25 22 63 68 85
103 56 91 81 120 120 138 36 17 64 58 64 94 0 22 15 27 23 8 4 -10 6 -10 6 -1
1 18 31 3 31 -16 0 -13 2 -13 9 -2 5 8 16 11 24 8 11 -4 14 -1 11 8 -4 8 5 15
25 20 17 4 42 19 55 33 29 32 106 122 106 125 8 42 27 183 25 185 -1 1 -10
-12 -19 -30 -15 -30 -16 -31 -15 -8 5 62 -2 70 -36 44z m-65 -309 c-13 -14
-28 -25 -34 -25 -6 0 3 11 19 25 39 31 45 32 15 0z"/>
<path d="M2943 2350 c0 -30 2 -43 4 -27 2 15 2 39 0 55 -2 15 -4 2 -4 -28z"/>
<path d="M4890 2365 c0 -3 11 -22 25 -42 13 -20 22 -39 18 -42 -3 -3 -8 0 -10
7 -14 40 -88 71 -110 47 -17 -18 16 -52 66 -70 24 -8 47 -12 52 -9 5 3 9 1 9
-4 0 -5 14 -15 30 -22 28 -12 33 -11 58 12 15 14 37 29 49 32 21 7 21 8 4 25
-36 36 -64 51 -77 40 -9 -7 -21 -6 -41 4 -37 19 -73 30 -73 22z"/>
<path d="M1522 2320 c0 -19 2 -27 5 -17 2 9 2 25 0 35 -3 9 -5 1 -5 -18z"/>
<path d="M1940 2344 c8 -4 23 -16 34 -28 l18 -21 -14 25 c-9 14 -24 26 -34 27
-13 2 -14 1 -4 -3z"/>
<path d="M1531 2270 c-11 -33 -15 -58 -9 -54 5 4 14 1 18 -6 5 -8 9 -5 13 9 3
13 1 19 -5 15 -6 -4 -8 1 -5 12 11 39 18 84 14 84 -3 0 -14 -27 -26 -60z"/>
<path d="M1590 2305 c-13 -14 -22 -27 -19 -29 2 -2 14 10 27 25 29 36 24 38
-8 4z"/>
<path d="M876 2311 c-4 -5 3 -7 14 -4 23 6 26 13 6 13 -8 0 -17 -4 -20 -9z"/>
<path d="M5170 2309 c0 -5 -5 -7 -12 -3 -7 4 -8 3 -4 -4 4 -7 28 -12 54 -12
37 1 43 3 29 11 -9 5 -21 8 -26 4 -5 -3 -12 -1 -16 5 -8 13 -25 13 -25 -1z"/>
<path d="M5318 2298 c-14 -14 -15 -18 -4 -18 8 0 17 7 20 16 9 23 4 24 -16 2z"/>
<path d="M5450 2300 c6 -11 21 -20 35 -20 30 0 41 16 15 23 -11 3 -20 0 -20
-6 0 -7 -5 -4 -11 6 -14 24 -32 22 -19 -3z"/>
<path d="M66 2294 c-9 -23 42 -38 72 -22 13 7 19 14 13 16 -7 2 -18 -1 -26 -8
-11 -9 -18 -7 -34 9 -16 16 -20 17 -25 5z"/>
<path d="M1950 2290 c6 -11 13 -20 16 -20 2 0 0 9 -6 20 -6 11 -13 20 -16 20
-2 0 0 -9 6 -20z"/>
<path d="M790 2273 c-12 -16 -24 -27 -26 -25 -2 1 -12 -1 -21 -6 -12 -7 -16
-23 -15 -63 1 -36 -4 -59 -14 -71 -21 -23 -11 -35 38 -49 37 -9 44 -9 55 7 14
19 9 102 -9 162 -8 27 -7 37 8 53 9 10 14 19 11 19 -3 0 -15 -12 -27 -27z"/>
<path d="M1922 2280 c0 -14 2 -19 5 -12 2 6 2 18 0 25 -3 6 -5 1 -5 -13z"/>
<path d="M619 2273 c-13 -17 -13 -17 6 -3 11 8 22 16 24 17 2 2 0 3 -6 3 -6 0
-17 -8 -24 -17z"/>
<path d="M3323 2235 c0 -22 2 -30 4 -17 2 12 2 30 0 40 -3 9 -5 -1 -4 -23z"/>
<path d="M4885 2224 c-11 -9 -33 -22 -50 -30 -16 -7 -23 -13 -15 -14 15 0 90
46 90 55 0 7 -3 6 -25 -11z"/>
<path d="M4908 2213 c-36 -22 -44 -42 -15 -36 22 5 22 5 2 -11 -11 -10 -13
-14 -5 -10 12 6 13 5 2 -7 -7 -8 -27 -20 -45 -26 l-32 -13 30 2 c17 1 39 -3
51 -10 12 -6 34 -9 50 -7 26 4 25 2 -11 -16 -39 -19 -39 -20 -10 -18 54 2 62
0 45 -12 -12 -8 -11 -9 5 -7 16 3 19 10 17 33 -2 17 -5 53 -5 82 -1 28 -4 50
-6 48 -2 -2 -10 2 -18 10 -18 19 -22 18 -55 -2z"/>
<path d="M2693 2171 c-36 -53 -60 -105 -78 -173 -16 -57 -12 -61 11 -13 9 19
19 33 23 31 4 -3 26 4 49 14 29 13 43 27 48 45 5 20 9 23 15 13 7 -10 9 -9 9
5 0 24 -6 22 -53 -18 -39 -34 -67 -45 -67 -26 0 4 16 29 36 55 19 25 36 55 37
66 2 27 17 14 17 -16 0 -13 5 -24 10 -24 15 0 12 16 -8 53 l-18 34 -31 -46z"/>
<path d="M5325 2210 c11 -5 16 -9 10 -10 -5 0 5 -7 23 -15 18 -8 31 -19 27
-25 -3 -5 -1 -10 4 -10 6 0 11 4 11 10 0 5 8 6 17 3 12 -5 11 -1 -5 15 -28 28
-56 42 -84 41 -22 0 -22 -1 -3 -9z"/>
<path d="M6204 2184 l-31 -34 28 0 c15 0 34 -3 43 -6 12 -5 16 1 16 24 0 49
-21 54 -56 16z"/>
<path d="M905 2192 c-11 -10 -38 -46 -61 -82 l-40 -65 48 -17 48 -16 25 30
c13 16 28 35 32 42 5 7 26 25 48 40 27 19 32 26 16 21 -18 -5 -22 -4 -16 6 6
9 3 10 -10 5 -18 -6 -18 -6 -2 12 17 19 24 47 9 38 -17 -10 -66 -15 -72 -7 -3
5 -14 2 -25 -7z m25 -6 c0 -2 -7 -9 -15 -16 -13 -11 -14 -10 -9 4 5 14 24 23
24 12z"/>
<path d="M3288 2195 c12 -23 62 -72 62 -61 0 4 -16 24 -36 44 -20 20 -32 28
-26 17z"/>
<path d="M344 2183 c-5 -17 -16 -23 -53 -29 -49 -7 -91 -28 -91 -45 0 -6 -9
-24 -21 -40 -11 -16 -19 -35 -16 -42 2 -6 1 -19 -4 -28 -5 -9 -4 -43 1 -75 5
-32 8 -59 7 -60 -1 -2 -22 0 -46 3 -39 5 -47 11 -74 54 -16 27 -34 49 -38 49
-14 0 -11 -295 3 -340 7 -22 15 -40 18 -40 3 0 13 16 22 35 14 27 17 54 14
117 -5 108 -1 127 27 121 76 -17 84 -23 91 -64 4 -22 11 -37 16 -34 6 3 10 2
10 -4 0 -5 16 -26 35 -47 19 -20 35 -41 35 -45 0 -5 6 -9 14 -9 8 0 16 -7 20
-15 3 -8 12 -15 20 -15 7 0 16 -7 20 -15 3 -8 12 -12 19 -9 8 3 17 -2 21 -11
3 -9 10 -14 15 -11 5 3 39 -10 76 -29 37 -20 69 -34 70 -33 1 2 -1 44 -5 93
-6 77 -7 82 -10 35 -1 -30 -4 -46 -7 -35 -2 11 -7 27 -10 35 -4 8 -7 33 -8 55
-1 22 -5 51 -9 65 -8 23 -8 23 9 6 45 -44 36 52 -9 103 -19 22 -19 24 -2 17
16 -5 17 -4 6 9 -11 13 -10 14 6 8 16 -6 15 -2 -5 26 -13 18 -30 35 -37 38 -8
3 -14 9 -14 15 0 5 4 7 9 4 5 -4 11 -1 13 5 2 7 20 -4 40 -23 l37 -34 10 23
c18 39 4 90 -41 147 -50 64 -116 98 -144 75 -13 -10 -17 -10 -25 2 -7 11 -10
10 -15 -8z m208 -126 c9 -15 10 -41 2 -50 -7 -7 -83 72 -84 86 0 10 73 -21 82
-36z m-215 -196 c-19 -21 -38 -48 -42 -60 -6 -20 -25 -28 -38 -15 -12 12 13
43 29 37 16 -6 16 17 -1 29 -5 4 -1 10 10 14 11 4 24 13 28 21 4 7 17 13 29
13 18 0 16 -4 -15 -39z m61 -53 c2 -8 -7 -33 -20 -54 -21 -36 -23 -37 -26 -15
-3 19 -6 21 -14 10 -16 -23 3 33 20 59 16 25 35 25 40 0z m34 -89 c5 -12 0
-18 -17 -21 -28 -6 -36 8 -24 40 7 20 11 21 22 10 7 -7 16 -20 19 -29z"/>
<path d="M3260 2175 c0 -8 4 -15 10 -15 5 0 7 7 4 15 -4 8 -8 15 -10 15 -2 0
-4 -7 -4 -15z"/>
<path d="M0 2160 c0 -14 7 -20 22 -20 20 0 21 1 3 20 -10 11 -20 20 -22 20 -1
0 -3 -9 -3 -20z"/>
<path d="M695 2146 c-11 -11 -27 -29 -35 -40 -12 -18 -10 -18 19 3 30 22 49
48 40 55 -2 1 -13 -7 -24 -18z"/>
<path d="M1155 2140 c3 -5 8 -10 11 -10 2 0 4 5 4 10 0 6 -5 10 -11 10 -5 0
-7 -4 -4 -10z"/>
<path d="M5450 2130 c0 -11 3 -19 8 -18 4 0 15 -2 25 -7 30 -13 28 0 -3 24
-30 21 -30 21 -30 1z"/>
<path d="M6000 2114 c0 -14 -8 -39 -17 -55 -16 -27 -16 -29 4 -51 30 -34 35
-56 18 -88 -8 -16 -15 -38 -15 -50 0 -11 -10 -37 -23 -58 -34 -54 -38 -69 -21
-83 8 -6 12 -14 9 -17 -3 -3 -11 3 -18 13 -9 11 -31 19 -64 22 -43 5 -60 1
-103 -23 -28 -15 -56 -36 -62 -47 -5 -10 -26 -37 -46 -59 -29 -32 -33 -41 -21
-49 22 -15 95 -5 90 12 -2 8 -6 22 -9 32 -5 18 -3 18 26 3 16 -8 52 -20 78
-26 27 -6 62 -23 78 -38 l29 -27 -22 32 c-17 25 -31 33 -65 38 -23 4 -65 20
-92 35 -41 25 -46 30 -29 36 11 4 40 15 64 25 48 21 86 24 96 9 3 -5 17 -10
30 -10 13 0 27 -4 30 -10 3 -5 18 -10 33 -10 17 0 22 -3 15 -8 -9 -6 -3 -14
20 -27 24 -15 50 -20 108 -20 43 0 75 3 72 8 -2 4 -26 7 -52 7 -96 0 -190 78
-132 110 25 13 41 13 21 0 -10 -6 10 -8 60 -4 41 3 77 9 80 14 3 6 16 3 28 -6
27 -18 19 -38 -11 -28 -19 6 -20 5 -8 -9 7 -9 17 -15 21 -12 5 3 11 1 15 -5 3
-5 14 -14 24 -20 18 -9 19 -1 20 155 1 91 -2 165 -6 166 -4 0 -31 2 -59 3 -31
2 -65 11 -86 24 -35 22 -88 88 -88 110 0 7 -4 12 -10 12 -5 0 -10 -12 -10 -26z
m45 -482 c-3 -3 -11 0 -18 7 -9 10 -8 11 6 5 10 -3 15 -9 12 -12z"/>
<path d="M3290 2122 c0 -18 32 -29 65 -21 l30 7 -35 1 c-20 0 -41 6 -48 13 -9
9 -12 9 -12 0z"/>
<path d="M990 2086 c0 -10 -4 -15 -9 -11 -10 5 -71 -53 -71 -67 0 -5 7 -8 15
-8 8 0 15 -6 15 -13 0 -21 60 -97 89 -111 15 -8 43 -17 63 -21 31 -6 41 -3 63
19 15 15 31 24 36 20 5 -3 27 -3 49 1 l39 7 -27 24 c-25 23 -25 24 -3 14 17
-9 21 -9 17 -1 -4 6 -23 18 -43 26 -29 12 -42 13 -69 3 -40 -14 -56 -4 -28 18
17 13 16 13 -13 -1 -41 -19 -42 -19 -36 5 4 14 0 20 -11 20 -9 0 -16 4 -16 9
0 5 -10 7 -22 4 -22 -6 -21 -4 6 25 25 27 27 32 12 38 -9 4 -20 4 -23 0 -3 -3
-12 -1 -20 5 -10 9 -13 8 -13 -5z m0 -91 c-7 -8 -17 -15 -23 -15 -6 0 -2 7 9
15 25 19 30 19 14 0z"/>
<path d="M5691 2073 c-1 -6 -4 -20 -7 -30 -5 -17 -5 -17 6 0 6 10 9 23 6 30
-3 9 -5 9 -5 0z"/>
<path d="M640 2048 c-11 -12 -20 -29 -19 -37 0 -9 5 -5 10 9 7 17 12 21 18 12
6 -11 13 -11 37 0 40 17 41 18 24 28 -24 16 -48 11 -70 -12z"/>
<path d="M2750 2055 c0 -8 4 -15 10 -15 5 0 7 7 4 15 -4 8 -8 15 -10 15 -2 0
-4 -7 -4 -15z"/>
<path d="M4669 2036 c29 -31 35 -33 22 -7 -6 10 -18 22 -28 25 -13 5 -11 1 6
-18z"/>
<path d="M721 2008 c-10 -32 -9 -58 4 -128 9 -45 15 -55 26 -39 13 20 11 37
-2 19 -9 -13 -10 -13 -6 0 5 20 76 21 102 1 12 -10 10 -4 -6 14 -31 35 -48 66
-60 109 -8 29 -7 30 6 12 8 -11 15 -23 15 -28 0 -4 12 -8 28 -7 23 0 24 2 8 8
-14 5 -16 10 -8 15 7 4 22 -4 35 -18 23 -25 24 -25 21 -3 -1 12 -3 27 -3 34
-1 12 -40 25 -113 37 -34 6 -37 5 -47 -26z"/>
<path d="M4975 2020 c-3 -6 1 -7 9 -4 18 7 21 14 7 14 -6 0 -13 -4 -16 -10z"/>
<path d="M2740 1993 c-50 -51 -137 -71 -147 -33 -3 11 -10 17 -16 13 -7 -4 -8
0 -3 13 4 10 4 15 0 11 -4 -4 -14 -1 -22 6 -13 10 -15 9 -8 -8 9 -23 9 -24 7
-49 0 -11 -4 -17 -7 -13 -12 12 -33 -21 -28 -44 4 -17 3 -20 -4 -10 -5 7 -11
9 -14 5 -9 -17 -3 -37 15 -48 24 -15 52 5 52 38 -1 14 4 27 11 30 13 5 7 -42
-8 -61 -6 -8 7 -12 50 -15 53 -3 58 -1 58 17 -1 11 5 20 12 21 6 1 15 3 20 4
4 1 10 2 15 1 4 0 7 4 7 10 0 5 4 8 9 5 8 -5 26 40 23 57 -1 4 2 7 6 7 4 0 9
16 10 35 3 41 -4 42 -38 8z m-31 -75 c-24 -20 -50 -20 -56 -1 -4 12 15 19 56
19 l23 0 -23 -18z"/>
<path d="M4935 2010 c-3 -5 -2 -10 4 -10 5 0 13 5 16 10 3 6 2 10 -4 10 -5 0
-13 -4 -16 -10z"/>
<path d="M5164 1995 c-10 -26 4 -44 41 -51 31 -5 34 -8 23 -22 -11 -14 -10
-15 7 -9 20 7 20 7 1 -8 -11 -8 -25 -15 -30 -15 -6 0 -4 -5 4 -10 11 -7 7 -10
-18 -10 -18 0 -45 8 -59 17 l-26 18 17 -27 c20 -30 37 -38 90 -40 20 -1 36 -5
36 -9 0 -12 -67 -22 -103 -15 l-32 6 22 -21 c14 -14 26 -19 34 -13 26 16 109
41 109 32 0 -4 -4 -8 -8 -8 -5 0 -17 -7 -28 -15 -17 -13 -16 -14 14 -4 28 10
35 9 45 -5 12 -16 14 -16 31 3 10 11 22 18 27 15 4 -2 11 11 15 31 8 42 19 45
33 8 l11 -28 -5 28 c-3 16 -16 38 -28 50 -12 12 -34 40 -49 63 -23 36 -32 42
-74 48 -71 9 -94 7 -100 -9z m150 -96 c-2 -4 -12 -8 -22 -8 -9 1 -28 -2 -42
-6 -24 -7 -24 -7 -5 8 20 16 78 21 69 6z"/>
<path d="M5386 1958 c10 -14 21 -24 23 -22 3 3 -6 15 -18 27 l-24 22 19 -27z"/>
<path d="M5638 1955 c-6 -14 -14 -25 -18 -25 -4 0 -13 -13 -20 -30 -7 -16 -16
-30 -21 -30 -5 0 -9 -10 -9 -22 -1 -23 -1 -23 -16 -3 -8 11 -13 24 -10 30 2 5
-3 16 -11 24 -12 11 -13 8 -7 -26 4 -21 10 -40 14 -43 4 -3 4 -14 0 -25 -6
-17 -9 -15 -20 17 -14 38 -21 41 -28 10 -11 -48 -14 -84 -6 -80 5 3 26 13 46
23 42 19 68 56 103 145 23 59 25 84 3 35z"/>
<path d="M650 1952 c0 -13 62 -103 67 -98 6 6 -50 106 -59 106 -5 0 -8 -4 -8
-8z"/>
<path d="M5755 1929 c-4 -6 -5 -12 -2 -15 2 -3 7 2 10 11 7 17 1 20 -8 4z"/>
<path d="M2360 1817 c0 -68 -2 -77 -25 -95 l-24 -19 21 -19 c11 -11 23 -14 25
-9 20 55 63 113 96 130 43 23 43 25 18 53 -11 14 -36 24 -65 28 l-46 7 0 -76z"/>
<path d="M5090 1850 c0 -5 5 -10 11 -10 5 0 7 5 4 10 -3 6 -8 10 -11 10 -2 0
-4 -4 -4 -10z"/>
<path d="M582 1810 c0 -14 2 -19 5 -12 2 6 2 18 0 25 -3 6 -5 1 -5 -13z"/>
<path d="M1885 1800 c-3 -6 1 -7 9 -4 18 7 21 14 7 14 -6 0 -13 -4 -16 -10z"/>
<path d="M5265 1745 c-16 -14 -37 -23 -45 -19 -10 3 -12 2 -5 -5 23 -22 48
-16 68 17 22 38 21 39 -18 7z"/>
<path d="M572 1735 c0 -16 2 -22 5 -12 2 9 2 23 0 30 -3 6 -5 -1 -5 -18z"/>
<path d="M2105 1740 c18 -20 18 -21 0 -34 -25 -18 -73 -43 -109 -56 l-28 -10
33 -23 34 -23 52 43 c42 36 58 44 84 41 18 -2 34 -9 37 -16 3 -9 -3 -11 -21
-7 -18 5 -39 -3 -81 -30 -31 -19 -56 -37 -56 -39 0 -2 11 -1 24 1 13 3 46 -6
75 -20 l51 -24 29 33 c36 43 85 46 125 9 14 -13 26 -21 26 -17 0 4 7 -2 15
-12 8 -11 15 -16 15 -12 0 13 -35 54 -78 89 -31 26 -48 34 -71 31 -17 -2 -33
1 -36 6 -4 6 8 10 27 10 28 1 31 2 17 13 -9 7 -43 20 -75 30 -32 11 -67 23
-76 28 -28 14 -32 11 -13 -11z m135 -120 c0 -5 -9 -10 -19 -10 -10 0 -21 -6
-24 -14 -9 -23 -46 -8 -40 15 4 15 14 19 44 19 22 0 39 -4 39 -10z"/>
<path d="M3646 1712 c-4 -12 -11 -20 -16 -17 -15 9 -22 -30 -23 -130 0 -54 -3
-90 -7 -80 -7 19 -7 19 -14 -3 -6 -17 -13 -22 -27 -19 -10 3 -19 0 -19 -5 0
-6 -13 -8 -32 -4 -26 4 -29 3 -15 -5 9 -6 17 -22 17 -37 0 -26 -2 -28 -36 -24
-26 3 -35 1 -30 -7 4 -6 16 -11 27 -11 10 0 19 -5 19 -11 0 -6 -7 -8 -16 -5
-10 4 -13 2 -8 -6 5 -8 2 -9 -10 -5 -10 4 -15 3 -11 -3 3 -6 0 -10 -7 -10 -9
0 -9 -3 2 -10 8 -5 36 -10 62 -10 37 0 50 4 58 19 7 13 7 22 0 26 -5 3 -10 2
-10 -3 0 -12 -38 -3 -47 11 -3 6 -1 7 5 3 7 -4 12 -1 12 10 0 12 6 15 25 12
22 -5 26 0 37 35 11 38 13 39 19 16 5 -15 7 -18 8 -6 1 9 3 17 5 17 2 0 11 3
19 6 10 3 17 -2 20 -13 4 -16 5 -15 6 3 0 11 12 35 26 54 20 28 25 45 24 94 0
57 -17 129 -18 83 -1 -27 -19 -11 -29 26 -8 30 -9 31 -16 9z m17 -56 c4 -10 1
-13 -8 -9 -8 3 -12 9 -9 14 7 12 11 11 17 -5z m-18 -64 c-6 -15 -8 -15 -15 3
-4 12 -3 26 4 34 9 12 12 11 14 -3 2 -9 1 -25 -3 -34z m23 -52 c2 -24 -2 -30
-17 -30 -24 0 -32 31 -11 47 22 18 26 16 28 -17z"/>
<path d="M5171 1718 c-1 -17 36 -45 46 -35 2 3 -5 8 -16 12 -11 3 -22 14 -24
23 -4 16 -5 16 -6 0z"/>
<path d="M5525 1719 c-16 -4 -64 -8 -105 -7 -42 0 -86 -5 -98 -11 -11 -6 -38
-15 -59 -20 -30 -7 -33 -9 -12 -10 15 -1 46 6 69 14 25 9 77 15 124 15 57 0
88 5 102 15 22 16 20 17 -21 4z"/>
<path d="M2592 1688 c2 -7 -3 -12 -10 -10 -8 1 -11 -2 -7 -8 4 -7 -3 -9 -20
-6 -21 4 -28 0 -36 -21 -7 -20 -6 -28 3 -34 31 -20 257 -47 278 -34 6 4 6 11
-3 20 -8 8 -16 10 -23 4 -13 -10 -94 -8 -94 2 0 4 16 21 36 39 41 36 41 46 0
24 -16 -8 -31 -12 -34 -9 -3 2 -18 -5 -35 -17 -28 -20 -29 -22 -11 -29 13 -5
6 -8 -23 -8 l-42 -1 19 45 c12 27 15 47 9 50 -5 4 -8 1 -7 -7z"/>
<path d="M2440 1642 c0 -12 -2 -12 -17 -1 -13 11 -17 11 -21 1 -3 -10 -7 -10
-18 -1 -21 17 -18 -14 4 -40 15 -18 22 -19 55 -12 49 12 50 13 37 43 -13 27
-40 34 -40 10z"/>
<path d="M3095 1620 c-10 -11 -27 -20 -38 -20 -39 0 -87 -23 -87 -42 0 -17 1
-17 25 -2 14 9 25 12 25 6 0 -6 -9 -16 -20 -22 -11 -6 -20 -15 -20 -20 0 -5 9
-12 20 -15 38 -12 20 -24 -29 -18 -31 3 -51 1 -55 -6 -4 -6 -12 -11 -19 -11
-8 0 -8 3 1 12 7 7 12 21 12 32 -1 18 -7 14 -35 -19 -19 -22 -35 -47 -35 -54
0 -12 3 -12 12 -3 23 23 29 12 9 -16 -16 -22 -17 -29 -5 -29 7 0 14 6 14 14 0
7 6 13 14 13 8 0 17 7 20 16 4 9 13 14 21 10 10 -4 15 1 15 15 0 18 2 19 15 5
16 -16 21 -41 6 -32 -5 4 -7 -3 -4 -15 5 -17 11 -20 36 -15 16 3 39 6 51 6 17
0 18 2 6 10 -8 5 -12 12 -8 15 3 3 14 -2 23 -12 17 -16 16 -18 -11 -25 -16 -4
-73 -11 -127 -14 -54 -4 -99 -10 -101 -13 -8 -13 52 -87 92 -114 37 -25 42
-33 42 -66 0 -28 9 -47 37 -79 20 -23 41 -42 47 -42 6 0 5 4 -3 9 -9 6 -10 11
-2 15 6 4 11 1 11 -6 0 -8 5 -6 11 5 5 9 14 17 19 17 6 0 2 -9 -8 -20 -9 -12
-17 -37 -18 -58 0 -20 -4 -50 -8 -67 -7 -28 -6 -28 9 5 19 41 65 103 72 97 2
-3 -8 -23 -22 -46 -25 -37 -26 -43 -15 -77 9 -26 11 -71 6 -143 -5 -91 -3
-112 13 -146 l18 -40 2 30 c1 17 5 98 9 180 9 159 16 155 12 -7 -2 -89 2 -112
30 -193 9 -26 9 -23 4 20 -9 83 -11 91 -19 104 -4 7 -4 38 0 69 6 45 9 52 17
38 6 -10 7 -41 3 -73 -5 -39 -3 -53 4 -49 7 5 10 -6 9 -31 0 -21 6 -52 15 -68
9 -17 16 -25 17 -20 0 23 130 180 130 159 0 -4 9 1 19 10 18 17 19 17 23 -1 3
-10 -3 -27 -11 -38 -15 -18 -15 -19 1 -7 19 15 25 7 22 -26 -2 -34 -23 -68
-48 -80 -11 -6 -15 -11 -8 -11 7 -1 10 -5 7 -11 -4 -6 1 -7 12 -3 31 11 -25
-44 -58 -57 -25 -11 -29 -18 -29 -49 0 -20 3 -45 6 -57 5 -20 8 -20 45 -7 22
7 70 17 107 22 37 5 57 9 45 10 -15 1 -20 6 -16 19 4 16 0 18 -26 14 -52 -7
-37 28 19 45 l35 11 -40 -3 c-22 -2 -48 -6 -57 -10 -16 -6 -17 -3 -12 26 3 19
14 52 24 74 26 56 43 151 35 191 -5 32 -8 33 -28 22 -29 -16 -34 -16 -87 -2
-84 22 -89 23 -83 8 3 -8 1 -14 -5 -14 -10 0 -22 23 -22 41 0 5 12 4 26 -2 15
-5 66 -10 113 -11 120 -1 121 -1 110 -46 -12 -52 -12 -52 21 -42 56 16 96 15
114 -3 22 -21 37 -22 29 -2 -3 9 -8 14 -10 11 -11 -11 -34 25 -28 44 6 18 2
20 -37 21 -24 1 -49 1 -57 0 -7 -2 -11 2 -8 6 3 5 -7 20 -23 33 -22 18 -26 27
-18 37 8 10 6 13 -10 13 -11 0 -29 3 -39 6 -15 5 -16 4 -3 -5 11 -9 0 -10 -45
-5 -33 3 -65 6 -72 7 -7 0 -10 4 -7 9 3 4 1 8 -3 8 -5 0 -8 14 -7 30 1 17 -3
33 -9 37 -6 4 -7 1 -2 -8 4 -8 -3 -2 -16 13 -24 27 -93 61 -103 51 -3 -3 -3
14 -1 38 4 33 2 40 -7 31 -32 -32 -72 -6 -134 90 -37 57 -49 69 -84 78 -60 16
-49 26 23 20 78 -6 118 -33 141 -95 18 -46 32 -55 54 -33 16 16 25 4 26 -36 1
-22 5 -32 14 -29 6 3 12 9 12 13 0 5 15 4 32 -1 18 -5 46 -9 63 -8 34 1 31 2
-47 19 -61 14 -75 33 -63 83 4 13 -2 49 -13 80 -21 64 -19 76 10 44 l20 -22
-5 23 c-3 12 -2 22 3 22 10 0 20 -26 20 -55 0 -41 10 -56 30 -45 28 15 80 70
67 70 -7 1 -1 10 12 21 23 19 23 20 5 34 -23 17 -40 19 -50 4 -3 -6 -20 -9
-38 -6 -17 2 -42 1 -56 -4 -14 -4 -38 -10 -54 -14 -24 -5 -27 -4 -18 7 12 15
5 61 -8 53 -4 -3 -10 2 -13 9 -8 21 40 35 80 23 18 -6 33 -16 33 -24 0 -12 13
-17 33 -14 4 0 7 -4 7 -9 0 -16 30 -12 36 5 4 8 11 12 18 8 6 -3 2 3 -8 16
-11 12 -26 19 -33 16 -8 -2 -11 0 -8 5 7 12 -43 44 -105 67 -58 21 -56 19 -35
43 10 11 16 20 13 20 -3 0 -13 -9 -23 -20z m25 -331 c0 -14 -27 -10 -33 5 -4
10 0 12 14 9 10 -3 19 -9 19 -14z m106 -432 c9 -16 13 -31 11 -34 -6 -5 -57
67 -57 81 0 15 30 -16 46 -47z m1 -204 c-2 -16 -4 -5 -4 22 0 28 2 40 4 28 2
-13 2 -35 0 -50z m183 -13 c-6 -11 -16 -20 -22 -20 -6 0 -3 9 7 20 10 11 20
20 22 20 2 0 -1 -9 -7 -20z"/>
<path d="M3550 1581 c0 -5 5 -13 10 -16 6 -3 10 -2 10 4 0 5 -4 13 -10 16 -5
3 -10 2 -10 -4z"/>
<path d="M1989 1543 c-13 -16 -12 -17 4 -4 9 7 17 15 17 17 0 8 -8 3 -21 -13z"/>
<path d="M2933 1535 c0 -15 5 -25 13 -25 8 0 14 10 14 25 0 15 -6 25 -14 25
-8 0 -13 -10 -13 -25z"/>
<path d="M1955 1510 c-3 -6 1 -7 9 -4 18 7 21 14 7 14 -6 0 -13 -4 -16 -10z"/>
<path d="M3540 1499 c0 -11 4 -18 10 -14 5 3 7 12 3 20 -7 21 -13 19 -13 -6z"/>
<path d="M5665 1510 c3 -5 -9 -19 -27 -30 -30 -18 -31 -26 -3 -20 5 1 1 -8 -9
-19 -10 -11 -16 -24 -13 -28 3 -5 2 -14 -2 -21 -5 -8 -14 -8 -35 3 -35 19 -42
19 -27 2 6 -8 8 -16 5 -20 -3 -3 3 -3 15 0 24 6 27 -6 9 -27 -7 -8 -4 -7 8 3
15 12 23 14 31 6 7 -7 24 -13 38 -15 25 -2 26 -1 11 15 -13 14 -14 27 -7 65 9
47 25 79 21 41 -7 -61 6 -79 60 -86 14 -2 29 -8 33 -14 5 -5 5 9 2 33 -5 28
-3 48 5 57 10 12 9 16 -6 20 -11 4 -37 15 -59 26 -44 21 -59 24 -50 9z"/>
<path d="M5835 1424 c28 -36 29 -57 2 -30 -13 14 -16 14 -21 -1 -4 -9 -4 -18
-1 -21 3 -3 5 0 5 7 0 6 13 -2 30 -19 16 -16 31 -30 34 -30 9 0 -34 114 -47
122 -27 17 -28 6 -2 -28z"/>
<path d="M3856 1415 c-20 -13 -36 -22 -36 -18 0 3 -7 0 -16 -8 -9 -7 -40 -13
-70 -13 -40 -1 -56 -6 -66 -20 -7 -10 -25 -34 -41 -54 -15 -19 -26 -37 -24
-38 6 -6 72 31 119 65 23 17 54 35 68 38 14 3 37 15 51 27 15 12 35 26 45 33
11 6 16 12 13 12 -3 1 -23 -10 -43 -24z"/>
<path d="M4303 1425 c-7 -20 -3 -24 27 -27 12 -2 25 3 28 11 3 8 0 11 -7 7 -6
-4 -14 0 -17 8 -8 20 -23 20 -31 1z"/>
<path d="M3450 1420 c8 -5 22 -10 30 -10 13 0 13 1 0 10 -8 5 -22 10 -30 10
-13 0 -13 -1 0 -10z"/>
<path d="M6076 1400 c3 -19 10 -42 16 -50 6 -10 7 -3 2 20 -3 19 -10 42 -16
50 -6 10 -7 3 -2 -20z"/>
<path d="M5976 1407 c3 -10 9 -15 12 -12 3 3 0 11 -7 18 -10 9 -11 8 -5 -6z"/>
<path d="M5467 1384 c-16 -9 -27 -18 -24 -21 6 -5 67 24 67 32 0 8 -14 5 -43
-11z"/>
<path d="M4307 1379 c7 -7 15 -10 18 -7 3 3 -2 9 -12 12 -14 6 -15 5 -6 -5z"/>
<path d="M416 1343 c-3 -3 -35 -15 -71 -28 -48 -16 -72 -30 -90 -55 -13 -18
-22 -38 -18 -43 4 -6 1 -7 -7 -2 -7 4 -16 2 -21 -6 -12 -19 -11 -39 1 -39 5 0
7 7 4 15 -4 8 -2 15 4 15 13 0 9 -27 -6 -42 -7 -7 -12 -21 -11 -32 1 -18 2
-17 9 4 8 24 8 24 9 3 1 -13 5 -23 10 -23 5 0 16 -3 25 -6 11 -4 19 2 25 17 7
18 10 19 10 7 1 -14 10 -18 44 -19 l42 -2 -35 -6 c-19 -4 -59 -6 -87 -4 -44 3
-53 0 -53 -14 0 -31 42 -103 73 -125 33 -23 36 -25 97 -33 43 -5 160 15 160
28 0 5 6 7 13 4 6 -2 28 6 47 19 19 13 28 24 20 25 -28 2 -85 6 -96 8 -7 0
-14 8 -18 16 -3 8 -2 14 2 14 32 -5 42 2 38 27 -5 23 -3 25 19 20 25 -6 35 8
13 17 -10 4 -9 6 1 6 8 1 20 -7 28 -16 13 -16 13 -16 4 3 -6 12 -7 24 -4 28 8
8 -42 7 -92 -3 -26 -5 -39 -12 -37 -21 2 -10 0 -11 -10 -3 -7 6 -22 13 -33 16
-17 4 -17 5 4 6 13 0 46 15 73 31 27 17 63 33 79 37 30 6 38 17 17 27 -7 3 -3
3 10 0 23 -6 31 10 10 20 -7 2 3 4 22 3 36 -2 61 -16 53 -29 -2 -5 0 -8 6 -8
5 0 13 -9 16 -20 3 -11 10 -20 15 -20 12 0 -19 67 -49 108 -14 17 -32 32 -40
32 -9 0 -28 6 -43 14 -15 8 -42 17 -60 21 -18 3 -41 9 -52 12 -11 3 -16 1 -12
-5 4 -7 -3 -8 -23 -2 -16 4 -32 6 -35 3z m154 -124 c0 -6 -4 -7 -10 -4 -5 3
-10 11 -10 16 0 6 5 7 10 4 6 -3 10 -11 10 -16z m-170 -109 c0 -5 -5 -10 -11
-10 -5 0 -7 5 -4 10 3 6 8 10 11 10 2 0 4 -4 4 -10z m78 -106 c10 3 27 -1 38
-10 16 -13 16 -15 2 -10 -10 3 -18 1 -18 -4 0 -6 -7 -7 -17 -1 -10 5 -35 17
-56 27 -21 11 -43 25 -49 31 -6 7 10 1 36 -13 26 -14 53 -23 64 -20z"/>
<path d="M3719 1309 c-23 -19 -23 -20 -2 -10 12 6 25 16 28 21 10 16 -1 12
-26 -11z"/>
<path d="M5539 1311 c9 -6 10 -11 2 -15 -6 -4 -11 -12 -11 -19 0 -12 29 23 30
36 0 4 -8 7 -17 7 -14 0 -15 -2 -4 -9z"/>
<path d="M4645 1255 c-3 -11 -11 -31 -16 -44 -16 -38 -3 -35 15 4 10 20 15 41
13 48 -3 7 -8 4 -12 -8z"/>
<path d="M3365 1245 c88 -17 97 -17 60 0 -16 8 -52 14 -80 14 l-50 -1 70 -13z"/>
<path d="M5765 1245 c-37 -12 -38 -13 -15 -18 14 -3 41 -8 61 -9 36 -4 36 -3
22 19 -9 13 -18 23 -22 22 -3 -1 -24 -7 -46 -14z"/>
<path d="M1490 1225 c-7 -8 -17 -15 -22 -15 -5 0 -21 -12 -35 -26 l-25 -26 30
-31 c40 -41 52 -75 52 -144 0 -46 2 -54 14 -44 25 21 29 62 8 90 -10 14 -21
37 -24 51 -3 14 -9 34 -13 44 -7 17 -5 17 22 -4 20 -14 34 -35 39 -59 l7 -36
9 35 c18 69 20 90 9 90 -6 0 -11 7 -11 16 0 8 -5 12 -10 9 -7 -4 -7 -12 0 -25
7 -13 6 -19 -6 -24 -18 -7 -34 0 -34 16 0 6 7 5 17 -3 15 -13 16 -11 10 11 -4
14 -7 40 -7 58 0 35 -10 41 -30 17z m-33 -77 c-3 -8 -6 -5 -6 6 -1 11 2 17 5
13 3 -3 4 -12 1 -19z"/>
<path d="M3235 1230 c-3 -6 1 -7 9 -4 18 7 21 14 7 14 -6 0 -13 -4 -16 -10z"/>
<path d="M3386 1165 c19 -15 19 -16 -3 -31 -13 -9 -23 -22 -23 -30 0 -33 -70
-38 -116 -7 -43 28 -20 0 25 -32 48 -33 94 -29 130 9 19 21 22 31 16 65 -5 33
-11 41 -28 41 -20 0 -20 0 -1 -15z"/>
<path d="M0 1137 c0 -19 8 -28 29 -35 16 -6 34 -6 42 -1 11 7 10 12 -6 28 -11
10 -30 22 -42 26 -20 5 -23 3 -23 -18z"/>
<path d="M2535 1140 c-27 -29 -15 -32 18 -4 16 14 22 24 14 24 -8 0 -22 -9
-32 -20z"/>
<path d="M3428 1108 c-3 -51 11 -79 47 -92 20 -7 20 -8 -2 -26 -20 -16 -21
-19 -6 -25 10 -3 14 -3 10 1 -4 4 2 13 12 20 10 7 24 34 30 59 9 37 9 50 -4
75 -17 32 -17 32 -57 35 -25 2 -26 -1 -30 -47z m32 -48 c8 -5 11 -10 5 -10 -5
0 -17 5 -25 10 -8 5 -10 10 -5 10 6 0 17 -5 25 -10z"/>
<path d="M5046 1141 c-3 -4 6 -23 19 -41 14 -19 25 -39 25 -44 0 -6 -14 10
-31 37 -32 48 -49 59 -49 31 0 -8 4 -13 9 -10 5 3 11 -1 15 -9 7 -19 5 -19
-30 0 -29 15 -29 14 -36 -18 -6 -29 -2 -37 50 -90 43 -43 54 -60 44 -66 -11
-6 -6 -14 17 -30 28 -21 77 -92 52 -77 -7 4 -8 1 -5 -8 3 -9 10 -16 15 -16 5
0 9 -5 9 -12 0 -6 8 -20 17 -30 16 -18 15 -18 -21 -3 -61 26 -51 11 15 -23 69
-36 100 -40 123 -16 22 22 20 31 -2 11 -32 -30 -69 -20 -63 16 1 4 -6 21 -14
37 -8 16 -15 35 -15 43 0 8 -16 32 -35 53 -29 31 -35 44 -29 64 16 62 -4 193
-32 204 -22 8 -42 7 -48 -3z"/>
<path d="M6164 1121 c-90 -49 -142 -114 -159 -196 -5 -22 -8 -43 -7 -47 1 -4
-2 -18 -8 -32 -6 -16 -5 -26 1 -28 7 -2 7 -13 0 -31 -6 -16 -8 -39 -5 -52 3
-12 1 -38 -4 -58 l-10 -35 32 9 c17 5 33 9 36 9 3 0 -1 4 -8 9 -10 6 -7 10 13
15 34 9 46 -1 22 -18 -29 -22 -19 -27 19 -11 20 8 40 12 45 9 5 -2 19 1 31 7
13 7 30 13 38 14 54 5 60 14 60 78 -1 34 -7 79 -14 99 -14 39 -10 92 5 82 5
-3 9 20 9 50 0 49 -2 55 -17 49 -17 -6 -17 -5 0 14 23 26 22 31 -10 36 l-28 4
28 2 c22 1 27 6 27 26 0 34 -30 32 -96 -4z m51 -131 c-3 -5 -12 -10 -18 -10
-7 0 -6 4 3 10 19 12 23 12 15 0z"/>
<path d="M610 1136 c0 -2 7 -7 16 -10 8 -3 12 -2 9 4 -6 10 -25 14 -25 6z"/>
<path d="M1417 1119 c12 -13 29 -40 37 -59 8 -19 15 -29 16 -22 0 25 -32 83
-54 94 -21 11 -21 10 1 -13z"/>
<path d="M5126 1127 c3 -10 9 -15 12 -12 3 3 0 11 -7 18 -10 9 -11 8 -5 -6z"/>
<path d="M114 1105 c-18 -14 -18 -15 6 -6 20 7 30 4 48 -12 22 -21 23 -21 16
-2 -14 37 -39 44 -70 20z"/>
<path d="M5207 1093 c11 -30 24 -42 40 -36 12 5 14 3 8 -7 -6 -9 -4 -11 4 -5
9 5 5 15 -15 36 -31 33 -46 37 -37 12z m31 -28 c-3 -3 -9 2 -12 12 -6 14 -5
15 5 6 7 -7 10 -15 7 -18z"/>
<path d="M0 1081 c0 -25 6 -27 13 -6 4 8 2 17 -3 20 -6 4 -10 -3 -10 -14z"/>
<path d="M1374 1070 c2 -19 -1 -41 -7 -48 -7 -9 -7 -12 0 -10 6 2 20 -8 31
-22 25 -30 29 -12 6 31 -8 17 -13 36 -11 42 2 7 12 -5 22 -26 18 -38 44 -65
32 -33 -4 10 -10 30 -14 44 -8 35 -29 56 -39 41 -4 -8 -9 -7 -15 2 -6 9 -7 1
-5 -21z"/>
<path d="M2571 1075 c-50 -23 -53 -27 -46 -52 16 -70 135 -183 190 -182 14 0
7 6 -20 20 -22 11 -47 26 -55 34 -13 13 -10 15 20 16 l35 1 -32 9 c-46 13 -43
33 3 24 24 -4 34 -3 29 4 -3 6 -15 11 -27 11 -22 0 -78 36 -78 51 0 5 8 9 18
9 11 0 26 8 35 18 12 14 13 19 2 29 -7 6 -17 9 -21 5 -5 -4 -2 1 5 11 18 22 7
21 -58 -8z"/>
<path d="M5141 1074 c0 -11 3 -14 6 -6 3 7 2 16 -1 19 -3 4 -6 -2 -5 -13z"/>
<path d="M119 1062 c6 -11 6 -33 1 -58 -5 -21 -7 -48 -5 -59 3 -11 2 -14 -1
-7 -8 18 -27 15 -20 -4 9 -25 -11 -53 -34 -47 -16 4 -20 0 -20 -21 0 -16 -4
-25 -10 -21 -6 4 -10 -7 -10 -27 0 -25 -3 -29 -10 -18 -7 11 -10 1 -10 -34 0
-48 0 -49 20 -31 11 10 20 15 20 10 0 -18 99 93 105 118 4 15 11 30 16 33 17
10 9 79 -16 132 -13 28 -27 52 -30 52 -3 0 -1 -8 4 -18z"/>
<path d="M4751 1066 c-12 -14 -6 -22 29 -41 10 -6 9 -1 -3 13 -11 11 -16 26
-12 31 9 16 0 13 -14 -3z"/>
<path d="M22 1054 c-19 -13 -22 -25 -22 -77 0 -34 5 -69 11 -77 8 -11 9 -7 4
16 -3 19 0 42 10 60 8 16 15 40 15 53 0 23 1 24 20 6 11 -10 20 -14 20 -8 0 5
-8 17 -18 26 -16 15 -20 15 -40 1z"/>
<path d="M3024 1019 c-19 -22 -19 -22 4 -8 12 8 22 17 22 21 0 12 -6 9 -26
-13z"/>
<path d="M4385 1029 c-4 -6 -5 -12 -2 -15 2 -3 7 2 10 11 7 17 1 20 -8 4z"/>
<path d="M4572 1013 c3 -17 51 -56 125 -102 l38 -23 -25 26 c-21 23 -22 30
-12 46 25 41 6 80 -25 49 -7 -7 -21 -6 -48 5 -48 20 -57 20 -53 -1z"/>
<path d="M608 1013 c7 -3 16 -2 19 1 4 3 -2 6 -13 5 -11 0 -14 -3 -6 -6z"/>
<path d="M3399 994 l-24 -27 28 18 c15 9 27 21 27 26 0 14 -5 11 -31 -17z"/>
<path d="M1790 974 c33 -56 46 -66 21 -17 -11 23 -26 45 -33 49 -6 4 -1 -10
12 -32z"/>
<path d="M4830 1001 c0 -5 8 -15 17 -22 11 -10 14 -10 9 -1 -4 7 -2 12 6 12 9
0 9 3 -2 10 -19 12 -30 13 -30 1z"/>
<path d="M1360 988 c0 -30 18 -66 39 -78 17 -9 20 -8 15 5 -4 8 -10 15 -16 15
-5 0 -7 4 -4 9 3 5 -1 12 -10 15 -8 3 -13 9 -10 14 2 4 1 14 -5 22 -7 13 -9
12 -9 -2z"/>
<path d="M3624 991 c-43 -11 -117 -53 -122 -71 -4 -11 -1 -10 12 3 17 17 29
21 98 32 20 3 47 14 60 25 22 18 22 19 3 19 -11 -1 -34 -4 -51 -8z"/>
<path d="M211 964 c0 -11 3 -14 6 -6 3 7 2 16 -1 19 -3 4 -6 -2 -5 -13z"/>
<path d="M1440 950 c6 -11 13 -20 16 -20 2 0 0 9 -6 20 -6 11 -13 20 -16 20
-2 0 0 -9 6 -20z"/>
<path d="M1563 930 c-34 -39 -44 -62 -18 -40 19 16 59 70 54 74 -2 1 -19 -14
-36 -34z"/>
<path d="M1655 960 c3 -5 8 -10 11 -10 2 0 4 5 4 10 0 6 -5 10 -11 10 -5 0 -7
-4 -4 -10z"/>
<path d="M5262 945 c0 -16 2 -22 5 -12 2 9 2 23 0 30 -3 6 -5 -1 -5 -18z"/>
<path d="M5321 924 c0 -11 3 -14 6 -6 3 7 2 16 -1 19 -3 4 -6 -2 -5 -13z"/>
<path d="M1713 919 c79 -9 88 -14 62 -33 -18 -13 -15 -14 25 -12 25 0 44 6 44
11 -3 18 -88 44 -144 43 l-55 -1 68 -8z m124 -35 c-3 -3 -12 -4 -19 -1 -8 3
-5 6 6 6 11 1 17 -2 13 -5z"/>
<path d="M3537 923 c-25 -6 -16 -25 19 -39 23 -10 36 -9 67 3 37 15 37 16 15
27 -25 13 -71 17 -101 9z"/>
<path d="M4606 923 c-13 -13 -5 -25 29 -39 40 -16 48 -17 40 -4 -10 17 -62 50
-69 43z"/>
<path d="M4554 862 c-6 -4 -15 -23 -19 -42 -5 -23 -4 -31 3 -25 8 9 34 75 29
75 -1 0 -7 -4 -13 -8z"/>
<path d="M4505 850 c-3 -5 -1 -10 4 -10 6 0 11 5 11 10 0 6 -2 10 -4 10 -3 0
-8 -4 -11 -10z"/>
<path d="M4970 840 c0 -11 4 -20 9 -20 5 0 7 9 4 20 -3 11 -7 20 -9 20 -2 0
-4 -9 -4 -20z"/>
<path d="M1914 813 c7 -15 17 -38 22 -51 8 -21 10 -19 25 23 17 45 17 45 -6
45 -13 0 -30 3 -39 6 -14 5 -14 2 -2 -23z"/>
<path d="M2672 814 c7 -15 15 -21 22 -15 6 4 17 10 25 13 7 2 -2 9 -22 15 -35
11 -35 10 -25 -13z"/>
<path d="M5322 815 c0 -16 2 -22 5 -12 2 9 2 23 0 30 -3 6 -5 -1 -5 -18z"/>
<path d="M1870 803 c-1 -23 -2 -25 -10 -11 -6 10 -18 14 -30 11 -24 -6 -24 -1
0 -57 20 -45 36 -64 23 -28 -5 13 -3 15 7 5 9 -8 20 -9 38 -2 18 7 28 6 34 -3
11 -18 10 -1 -2 20 -5 9 -16 34 -24 55 -18 44 -36 49 -36 10z"/>
<path d="M3687 819 c7 -7 15 -10 18 -7 3 3 -2 9 -12 12 -14 6 -15 5 -6 -5z"/>
<path d="M4766 817 c3 -10 9 -15 12 -12 3 3 0 11 -7 18 -10 9 -11 8 -5 -6z"/>
<path d="M3660 810 c0 -5 5 -10 11 -10 5 0 7 5 4 10 -3 6 -8 10 -11 10 -2 0
-4 -4 -4 -10z"/>
<path d="M284 793 c-18 -18 -18 -22 3 -45 16 -17 15 -20 -17 -53 -19 -19 -38
-35 -43 -35 -14 0 -4 53 16 83 22 33 9 36 -20 5 -41 -47 -81 -134 -74 -163 2
-5 3 -34 3 -63 0 -34 4 -49 9 -40 6 9 9 6 9 -12 l0 -25 19 24 19 24 8 -24 c11
-34 12 -42 1 -56 -6 -9 -6 -13 2 -13 10 0 15 14 12 33 -1 5 4 5 10 2 6 -4 8
-16 5 -28 -7 -29 5 -79 18 -74 6 2 32 -13 57 -34 25 -21 49 -36 52 -33 3 3 17
-2 32 -12 14 -9 25 -13 24 -8 -1 5 0 11 1 14 1 3 4 25 6 50 3 25 10 58 16 74
9 23 9 31 -1 34 -6 2 -17 11 -24 19 -7 9 -30 33 -51 54 -36 35 -40 42 -40 90
l1 52 -24 -29 c-12 -16 -23 -33 -23 -38 0 -5 -7 -3 -15 4 -8 7 -15 19 -15 27
0 8 -4 12 -9 9 -5 -4 -4 11 2 31 10 34 41 72 59 73 3 0 32 -51 63 -112 31 -62
53 -99 50 -83 -5 24 -2 20 15 -15 13 -25 24 -39 27 -32 3 6 10 9 16 5 6 -4 1
9 -11 28 -13 18 -28 44 -34 57 -6 12 -15 22 -20 22 -5 0 -7 4 -3 9 3 5 -4 12
-15 16 -11 3 -20 10 -20 14 0 10 77 -26 104 -48 18 -15 18 -15 7 6 -6 12 -39
41 -73 65 -56 40 -59 43 -35 46 14 2 35 -2 47 -8 27 -14 41 -4 35 23 -6 21 -2
22 34 22 l40 -1 -28 28 c-16 16 -44 34 -63 42 -44 19 -145 18 -164 -1z m-100
-279 c3 -8 2 -12 -4 -9 -6 3 -10 10 -10 16 0 14 7 11 14 -7z m61 -33 c3 -5 1
-12 -5 -16 -5 -3 -10 1 -10 9 0 18 6 21 15 7z"/>
<path d="M5246 783 c-6 -14 -5 -15 5 -6 7 7 10 15 7 18 -3 3 -9 -2 -12 -12z"/>
<path d="M4823 705 c-28 -24 -28 -24 -10 -55 9 -18 17 -41 17 -53 0 -23 -57
-84 -73 -79 -16 5 -27 -20 -27 -62 0 -56 -14 -35 -21 32 l-6 57 -2 -53 c-1
-50 21 -112 40 -112 4 0 9 -9 12 -20 5 -20 47 -29 47 -10 0 6 -10 10 -21 10
-16 0 -20 5 -16 20 3 11 1 20 -4 20 -15 0 3 64 30 105 15 22 47 54 71 70 42
28 45 32 39 65 -14 86 -34 102 -76 65z m27 -22 c0 -16 2 -46 5 -68 l5 -40 -14
30 c-17 34 -21 105 -6 105 6 0 10 -12 10 -27z m40 -12 c0 -6 -4 -13 -10 -16
-5 -3 -10 1 -10 9 0 9 5 16 10 16 6 0 10 -4 10 -9z"/>
<path d="M3685 671 l20 -24 -25 7 c-17 5 -20 4 -10 -2 20 -12 78 -26 65 -15
-73 61 -71 60 -50 34z"/>
<path d="M5610 671 c-25 -9 -69 -25 -98 -35 -28 -10 -50 -22 -46 -27 3 -5 0
-9 -7 -9 -7 0 -9 -3 -6 -7 4 -3 2 -12 -4 -20 -9 -10 -8 -13 5 -13 10 0 15 -3
13 -7 -3 -5 20 -9 50 -10 52 -2 216 -45 238 -63 6 -4 27 -10 47 -14 21 -4 40
-12 44 -18 5 -8 2 -9 -9 -5 -11 4 -17 1 -17 -8 0 -19 14 -19 30 0 9 11 10 18
1 28 -6 8 -8 17 -4 20 3 4 2 7 -4 7 -9 0 -21 25 -27 52 0 4 -8 15 -16 25 -9
10 -17 23 -18 28 -2 6 -10 14 -19 19 -13 7 -13 10 -2 17 10 6 8 9 -8 9 -13 0
-23 4 -23 9 0 5 -9 7 -20 4 -11 -3 -20 0 -20 6 0 7 -8 8 -26 1 -38 -15 -42
-12 -14 10 29 23 21 23 -40 1z"/>
<path d="M1931 637 c-27 -43 -77 -90 -126 -116 -22 -12 -32 -20 -22 -17 11 4
30 -3 45 -15 15 -11 43 -30 61 -42 49 -31 72 -76 82 -165 13 -106 15 -109 42
-85 39 36 61 37 80 3 10 -16 21 -29 25 -28 4 2 21 -6 37 -16 71 -45 67 -44 99
-22 74 51 100 74 134 120 35 48 36 48 81 43 25 -2 53 -7 61 -11 11 -4 19 7 30
43 l16 49 -25 -10 c-14 -5 -31 -14 -37 -19 -8 -7 -21 -1 -42 18 -48 45 -60 53
-79 53 -16 0 -16 -2 -3 -11 12 -9 11 -10 -5 -4 -11 4 -35 9 -53 12 -22 4 -45
20 -71 50 -22 24 -42 40 -45 35 -15 -25 -36 -146 -37 -217 l-1 -80 -17 38
c-14 29 -20 34 -25 22 -5 -13 -8 -14 -20 -3 -8 7 -12 16 -9 21 2 4 0 7 -6 7
-5 0 -9 18 -7 42 3 34 1 39 -8 26 -11 -15 -13 -15 -25 4 -9 15 -9 23 0 34 10
12 9 13 -5 8 -11 -4 -16 -1 -16 10 0 9 6 16 13 16 7 1 5 6 -6 14 -12 9 -14 16
-7 21 5 3 8 11 5 16 -4 5 -1 9 6 9 7 0 9 3 6 6 -4 4 7 24 24 45 l31 39 -36 0
c-26 0 -38 5 -42 18 -11 34 -21 46 -52 59 -29 12 -32 11 -51 -20z m379 -328
c18 -53 18 -55 -4 -94 -19 -35 -26 -40 -56 -40 l-35 0 0 77 c0 58 3 74 12 66
6 -5 15 -24 19 -41 l7 -32 9 30 c15 49 16 79 6 100 -10 19 -9 19 7 4 9 -9 25
-41 35 -70z m56 18 c4 -20 2 -33 -5 -35 -6 -2 -11 -10 -11 -18 0 -30 -18 -12
-24 24 -4 20 -9 44 -12 53 -3 13 1 15 20 12 18 -4 27 -14 32 -36z"/>
<path d="M4753 627 c-27 -30 -52 -77 -40 -77 2 0 21 25 41 55 20 30 35 55 33
55 -2 0 -17 -15 -34 -33z"/>
<path d="M5420 645 c-7 -9 -19 -14 -26 -11 -7 3 -18 -2 -24 -9 -7 -8 -16 -13
-20 -10 -13 8 -40 -37 -40 -67 0 -38 16 -44 28 -10 5 16 31 50 58 75 26 26 45
47 42 47 -3 0 -11 -7 -18 -15z"/>
<path d="M620 610 c6 -12 7 -21 0 -25 -6 -4 -6 -15 0 -30 5 -14 6 -25 2 -25
-7 0 -5 -135 3 -155 2 -5 7 1 11 14 7 23 8 24 15 5 6 -16 8 -14 8 9 1 20 -3
26 -11 21 -10 -6 -10 -5 -1 8 7 8 10 18 6 22 -4 4 -1 4 8 1 27 -10 21 53 -14
137 -7 15 -18 30 -25 33 -9 3 -10 0 -2 -15z"/>
<path d="M5160 585 c1 -6 7 -21 16 -35 l15 -25 -7 25 c-7 26 -24 52 -24 35z"/>
<path d="M2095 550 c-3 -5 -2 -10 4 -10 5 0 13 5 16 10 3 6 2 10 -4 10 -5 0
-13 -4 -16 -10z"/>
<path d="M2145 536 c-30 -13 -106 -86 -91 -86 5 0 21 11 37 24 15 13 46 32 68
42 40 19 53 34 29 34 -7 -1 -26 -7 -43 -14z"/>
<path d="M5200 544 c0 -6 7 -19 16 -30 14 -18 14 -18 3 6 -14 31 -19 36 -19
24z"/>
<path d="M1428 488 c4 -23 2 -29 -8 -23 -10 6 -11 1 -6 -20 6 -23 5 -26 -6
-18 -10 9 -13 2 -15 -33 -2 -41 -1 -44 17 -34 11 6 27 22 36 36 14 21 15 30 4
69 -15 53 -28 67 -22 23z"/>
<path d="M2722 505 c9 -11 18 -33 21 -50 l4 -30 2 31 c1 21 -6 37 -21 50 -23
19 -23 19 -6 -1z"/>
<path d="M4410 515 c0 -3 11 -32 25 -65 23 -56 33 -110 19 -110 -4 0 -27 15
-53 33 -55 40 -71 50 -71 43 0 -2 27 -24 60 -47 62 -43 68 -59 22 -59 -19 0
-23 -3 -14 -9 16 -10 -37 -20 -113 -22 l-50 -1 55 -10 c42 -7 71 -5 123 7 65
16 70 16 90 -2 12 -10 24 -19 27 -21 2 -2 -2 -8 -10 -13 -12 -9 -12 -10 3 -5
9 3 17 2 17 -2 0 -9 -66 -28 -127 -37 -23 -4 -44 -13 -47 -21 -4 -10 -24 -15
-68 -16 l-63 -2 59 -3 c45 -3 81 3 143 22 79 25 85 26 108 11 23 -15 38 -65
15 -51 -5 3 -10 -1 -10 -9 0 -9 5 -16 11 -16 5 0 7 -5 4 -10 -3 -6 -4 -10 -1
-10 3 0 12 13 20 29 14 26 14 31 -4 51 -16 18 -17 26 -8 37 14 18 17 168 3
182 -7 7 -11 1 -12 -17 -4 -38 -11 -96 -13 -102 -1 -3 -2 -9 -1 -15 1 -5 -16
9 -37 32 -30 33 -40 53 -45 90 -3 26 -15 69 -27 96 -19 42 -30 58 -30 42z"/>
<path d="M5388 513 c-10 -2 -18 -9 -18 -14 0 -5 -9 -9 -20 -9 -11 0 -20 -5
-20 -11 0 -5 6 -7 13 -3 7 5 6 0 -3 -11 -14 -18 -15 -18 -18 3 -2 11 -9 25
-15 31 -12 9 -15 -9 -9 -56 2 -15 117 -104 125 -97 3 3 12 2 19 -2 14 -10 28
-12 101 -15 31 -1 52 2 57 11 5 9 22 11 54 8 36 -4 46 -2 46 9 0 8 4 12 9 9 4
-3 19 3 31 14 13 11 28 20 34 20 6 0 17 4 24 9 11 7 12 12 1 29 -15 24 -39 18
-39 -9 0 -12 -7 -19 -20 -19 -11 0 -20 7 -20 15 0 21 -20 19 -20 -2 -1 -16 -3
-15 -18 3 -9 12 -25 36 -34 54 -11 20 -22 29 -30 24 -9 -6 -9 -9 0 -12 7 -2
19 -18 28 -35 l15 -32 -20 25 c-20 24 -21 24 -21 4 0 -12 7 -24 15 -28 17 -6
21 -36 4 -36 -5 0 -7 4 -4 10 3 5 0 8 -7 5 -8 -3 -23 12 -38 40 -15 28 -30 43
-38 40 -8 -3 -18 -5 -23 -5 -5 0 -3 -11 3 -25 6 -14 17 -24 24 -21 15 6 25
-16 14 -33 -8 -14 -45 28 -74 87 -14 28 -21 32 -54 31 -20 -1 -45 -3 -54 -6z
m172 -43 c0 -5 -5 -10 -11 -10 -5 0 -7 5 -4 10 3 6 8 10 11 10 2 0 4 -4 4 -10z
m160 -80 c0 -5 -4 -10 -10 -10 -5 0 -10 5 -10 10 0 6 5 10 10 10 6 0 10 -4 10
-10z"/>
<path d="M4844 502 c-25 -16 -32 -47 -16 -62 14 -13 15 -12 9 3 -3 9 -2 17 4
17 6 0 8 4 4 9 -3 5 1 11 10 13 8 2 11 8 7 15 -4 7 -12 9 -18 5z"/>
<path d="M3055 484 c-65 -24 -102 -67 -115 -134 -4 -19 -11 -44 -15 -55 -7
-18 -5 -17 18 4 15 14 27 20 27 16 0 -5 27 17 60 50 33 33 60 63 60 67 0 11
-73 -27 -89 -46 -7 -8 -9 -21 -5 -27 4 -7 3 -9 -4 -5 -6 3 -14 1 -18 -5 -4 -8
-3 -9 4 -5 7 4 12 3 12 -3 0 -5 -4 -13 -10 -16 -5 -3 -10 -1 -10 5 0 6 -5 8
-11 4 -22 -13 26 58 54 82 26 22 50 29 83 25 6 -1 17 6 24 14 18 22 -14 20
-69 -5 -52 -24 -57 -25 -41 -6 17 21 96 49 120 43 11 -3 20 -1 20 4 0 13 -49
10 -95 -7z m-30 -104 c-10 -11 -21 -18 -23 -15 -3 3 3 12 14 20 27 20 30 18 9
-5z"/>
<path d="M5672 474 c8 -18 14 -21 20 -12 12 20 10 25 -11 31 -17 4 -18 2 -9
-19z"/>
<path d="M4240 455 c14 -8 30 -14 35 -14 6 0 -1 6 -15 14 -14 8 -29 14 -35 14
-5 0 1 -6 15 -14z"/>
<path d="M1240 454 c0 -4 11 -17 25 -30 22 -20 24 -26 13 -44 -13 -21 -62 -28
-73 -10 -9 15 -25 12 -25 -5 0 -9 10 -15 23 -16 22 -1 100 -27 83 -28 -5 -1
-3 -8 4 -16 6 -8 9 -18 6 -24 -3 -5 6 -13 21 -18 26 -9 29 -7 41 26 25 66 25
77 0 104 -12 14 -31 35 -40 46 -16 19 -78 31 -78 15z"/>
<path d="M4351 434 c0 -11 3 -14 6 -6 3 7 2 16 -1 19 -3 4 -6 -2 -5 -13z"/>
<path d="M3363 401 c8 -18 25 -40 39 -49 14 -10 24 -25 22 -35 -1 -9 1 -15 6
-12 15 9 5 32 -38 80 -39 44 -41 46 -29 16z"/>
<path d="M3449 411 c13 -12 28 -21 34 -21 12 0 11 0 -28 24 l-30 17 24 -20z"/>
<path d="M2710 399 c-17 -15 -35 -20 -62 -17 -42 4 -49 -9 -20 -35 23 -21 65
-22 81 -3 10 12 34 77 28 76 -1 -1 -13 -10 -27 -21z"/>
<path d="M4793 405 c-3 -9 -3 -19 1 -22 3 -4 6 1 6 10 0 8 6 18 13 20 9 4 9 6
-1 6 -7 1 -15 -6 -19 -14z"/>
<path d="M491 395 c-1 -11 5 -29 12 -40 7 -11 13 -36 14 -55 1 -20 -1 -25 -4
-12 -2 12 -11 22 -19 22 -8 0 -14 5 -14 10 0 6 5 10 10 10 6 0 5 8 -2 20 -7
10 -13 18 -14 17 -7 -7 -15 -151 -10 -173 l7 -26 24 27 c14 14 25 35 25 46 0
11 5 17 10 14 6 -3 10 2 10 12 0 11 5 24 12 31 9 9 9 12 0 12 -7 0 -12 12 -12
26 0 15 -4 23 -11 19 -6 -4 -10 -1 -8 6 3 26 -1 40 -10 35 -5 -4 -12 0 -14 6
-3 7 -6 4 -6 -7z"/>
<path d="M3325 359 c10 -18 22 -29 30 -25 7 2 16 -2 19 -10 6 -16 36 -20 36
-4 0 5 -6 7 -14 4 -9 -3 -13 1 -13 13 2 12 -5 18 -19 17 -16 0 -20 4 -16 18 3
13 -1 18 -17 18 -21 0 -21 -1 -6 -31z"/>
<path d="M600 360 c8 -5 20 -10 25 -10 6 0 3 5 -5 10 -8 5 -19 10 -25 10 -5 0
-3 -5 5 -10z"/>
<path d="M2860 336 c0 -14 -4 -26 -9 -26 -5 0 -8 -11 -5 -25 2 -14 0 -25 -6
-25 -6 0 -9 -4 -6 -9 8 -12 -13 -72 -33 -95 -16 -19 -15 -19 11 -2 14 9 29 24
32 33 4 9 9 13 12 10 7 -6 -22 -65 -44 -89 -9 -12 -11 -18 -4 -18 7 0 12 3 12
8 0 4 10 18 21 32 l20 25 -6 -55 c-3 -30 -13 -62 -22 -72 -9 -10 -13 -18 -10
-18 6 0 57 48 57 54 0 2 5 28 10 57 8 39 7 79 -1 142 -11 83 -29 128 -29 73z"/>
<path d="M1680 329 c0 -5 5 -7 10 -4 6 3 10 8 10 11 0 2 -4 4 -10 4 -5 0 -10
-5 -10 -11z"/>
<path d="M4741 316 c-11 -13 -11 -16 3 -16 11 0 15 -5 10 -12 -5 -10 -4 -10 6
-1 8 7 9 17 3 28 -9 15 -11 15 -22 1z"/>
<path d="M1583 270 c0 -25 2 -35 4 -22 2 12 2 32 0 45 -2 12 -4 2 -4 -23z"/>
<path d="M4170 300 c0 -5 5 -10 11 -10 5 0 7 5 4 10 -3 6 -8 10 -11 10 -2 0
-4 -4 -4 -10z"/>
<path d="M4763 273 c-7 -2 -13 -14 -12 -26 0 -21 1 -21 8 -2 4 11 19 23 32 26
19 6 20 7 4 7 -11 0 -26 -2 -32 -5z"/>
<path d="M3213 248 c0 -13 -3 -56 -6 -95 -3 -57 -10 -82 -31 -115 l-27 -43 30
34 c53 60 79 182 49 224 -12 16 -13 15 -15 -5z"/>
<path d="M4818 260 c-1 -3 -2 -33 -2 -67 -1 -45 2 -59 11 -52 6 6 10 18 8 27
-1 9 4 34 11 56 8 21 14 39 14 40 0 5 -40 1 -42 -4z"/>
<path d="M3023 241 c-13 -11 -23 -24 -23 -31 0 -12 11 -3 39 33 17 22 12 21
-16 -2z"/>
<path d="M3353 245 c-3 -9 -3 -18 -1 -21 3 -3 8 4 11 16 6 23 -1 27 -10 5z"/>
<path d="M3370 230 c0 -5 5 -10 10 -10 6 0 10 5 10 10 0 6 -4 10 -10 10 -5 0
-10 -4 -10 -10z"/>
<path d="M1308 207 c-36 -14 -36 -27 1 -27 20 0 30 6 34 20 6 22 4 23 -35 7z"/>
<path d="M1127 199 c7 -7 15 -10 18 -7 3 3 -2 9 -12 12 -14 6 -15 5 -6 -5z"/>
<path d="M2970 200 c-9 -6 -10 -10 -3 -10 6 0 15 5 18 10 8 12 4 12 -15 0z"/>
<path d="M1203 179 c12 -7 27 -7 45 0 25 9 24 9 -18 10 -36 0 -41 -2 -27 -10z"/>
<path d="M3395 180 l-20 -9 20 0 c11 0 27 4 35 9 13 9 13 10 0 9 -8 0 -24 -4
-35 -9z"/>
<path d="M1097 174 c-9 -10 4 -34 19 -34 7 0 18 -8 23 -17 6 -10 11 -12 11 -5
0 6 8 12 18 12 14 0 15 2 2 10 -13 9 -13 10 0 11 8 0 2 7 -15 14 -33 16 -49
18 -58 9z"/>
<path d="M3091 128 c-12 -29 -22 -55 -23 -58 -1 -3 -8 -11 -17 -18 -14 -11
-13 -11 7 -2 12 6 20 15 17 21 -4 5 0 9 7 9 7 0 20 23 29 50 21 66 8 64 -20
-2z"/>
<path d="M940 161 c0 -5 7 -12 16 -15 14 -5 15 -4 4 9 -14 17 -20 19 -20 6z"/>
<path d="M5630 142 c-24 -16 -29 -23 -15 -20 11 1 23 8 27 13 4 6 8 1 8 -11 0
-11 -10 -31 -22 -44 -19 -20 -19 -23 -4 -17 15 6 18 3 14 -18 -3 -15 -1 -22 5
-18 6 4 8 0 4 -10 -5 -14 0 -17 27 -17 23 0 36 6 41 17 3 10 1 19 -4 21 -6 2
-11 16 -11 31 0 15 -3 31 -7 35 -5 4 -12 20 -18 35 l-10 27 -35 -24z"/>
<path d="M3132 128 c-1 -21 -1 -39 1 -41 1 -2 -6 -12 -16 -22 -10 -9 -16 -24
-13 -31 3 -9 0 -11 -11 -7 -11 4 -14 2 -11 -8 2 -8 14 -15 26 -17 17 -3 22 3
27 30 3 18 5 56 2 83 -3 41 -4 43 -5 13z"/>
<path d="M1954 135 c-12 -8 -25 -11 -29 -7 -4 4 -5 -3 -1 -14 7 -22 -16 -40
-35 -28 -5 3 -9 -2 -9 -10 0 -23 24 -19 58 9 17 14 35 25 41 25 6 0 11 9 11
20 0 24 -8 25 -36 5z"/>
<path d="M2088 92 c-61 -48 -96 -92 -74 -92 9 0 16 4 16 10 0 5 25 34 55 65
31 30 54 55 53 55 -2 0 -24 -17 -50 -38z"/>
<path d="M1060 111 c0 -12 39 -35 46 -28 3 2 -7 12 -21 21 -14 9 -25 12 -25 7z"/>
<path d="M970 88 c0 -28 30 -68 51 -68 6 0 3 8 -7 17 -9 9 -23 31 -30 48 l-13
30 -1 -27z"/>
<path d="M4510 78 c0 -4 -17 -9 -37 -11 l-38 -4 41 -1 c22 -1 49 4 60 12 18
14 18 15 -3 13 -13 -1 -23 -5 -23 -9z"/>
<path d="M1770 15 c-24 -14 -23 -14 25 -13 28 0 39 3 25 6 -23 4 -24 5 -5 13
l20 8 -20 0 c-11 0 -31 -6 -45 -14z"/>
<path d="M1400 9 c0 -5 5 -7 10 -4 6 3 10 8 10 11 0 2 -4 4 -10 4 -5 0 -10 -5
-10 -11z"/>
</g>
</svg>
