<?xml version="1.0" standalone="no"?>
<!DOCTYPE svg PUBLIC "-//W3C//DTD SVG 20010904//EN"
 "http://www.w3.org/TR/2001/REC-SVG-20010904/DTD/svg10.dtd">
<svg version="1.0" xmlns="http://www.w3.org/2000/svg"
 width="512.000000pt" height="512.000000pt" viewBox="0 0 512.000000 512.000000"
 preserveAspectRatio="xMidYMid meet">

<g transform="translate(0.000000,512.000000) scale(0.100000,-0.100000)"
fill="#000000" stroke="none">
<path d="M1050 4810 c-167 -21 -323 -118 -450 -279 -140 -177 -220 -363 -261
-603 -18 -105 -21 -149 -16 -303 10 -343 84 -620 267 -990 195 -394 467 -758
866 -1160 401 -404 784 -691 1189 -890 347 -171 638 -251 952 -262 388 -14
693 78 945 283 206 169 302 389 268 616 -29 201 -77 273 -402 594 -228 225
-261 254 -333 291 -108 56 -187 75 -310 75 -83 0 -116 -5 -181 -27 -134 -45
-176 -75 -375 -272 -163 -161 -190 -183 -218 -183 -18 0 -44 6 -59 14 -15 8
-298 289 -630 624 -580 588 -602 612 -602 648 0 35 12 49 188 228 166 167 193
200 225 266 49 101 68 178 68 285 1 116 -21 207 -73 309 -38 73 -66 106 -283
324 -268 272 -336 329 -445 371 -115 44 -212 57 -330 41z m169 -151 c36 -6
100 -27 141 -47 69 -33 96 -57 326 -286 264 -264 296 -305 329 -420 13 -43 16
-85 13 -160 -3 -92 -7 -108 -41 -179 -33 -70 -56 -98 -217 -262 -197 -200
-220 -234 -220 -325 0 -106 -8 -96 663 -767 671 -671 661 -663 767 -663 92 0
126 23 329 223 167 164 194 186 261 217 65 29 87 34 175 38 112 5 183 -10 266
-55 29 -15 147 -126 312 -291 239 -240 269 -274 296 -334 69 -151 60 -321 -23
-462 -31 -54 -166 -184 -236 -228 -244 -156 -546 -216 -885 -178 -416 48 -885
258 -1339 599 -220 166 -325 258 -571 505 -382 383 -624 702 -819 1078 -188
360 -276 687 -276 1018 0 336 108 625 307 824 95 95 174 138 288 156 73 11 82
11 154 -1z"/>
</g>
</svg>
