<?xml version="1.0" standalone="no"?>
<!DOCTYPE svg PUBLIC "-//W3C//DTD SVG 20010904//EN"
 "http://www.w3.org/TR/2001/REC-SVG-20010904/DTD/svg10.dtd">
<svg version="1.0" xmlns="http://www.w3.org/2000/svg"
 width="980.000000pt" height="980.000000pt" viewBox="0 0 980.000000 980.000000"
 preserveAspectRatio="xMidYMid meet">

<g transform="translate(0.000000,980.000000) scale(0.100000,-0.100000)"
fill="#000000" stroke="none">
<path d="M4660 8604 c-19 -2 -84 -9 -145 -14 -878 -84 -1728 -512 -2345 -1182
-541 -587 -867 -1308 -962 -2123 -17 -146 -17 -637 0 -775 92 -748 352 -1371
811 -1945 127 -159 395 -426 556 -554 560 -446 1185 -708 1895 -797 171 -21
530 -29 701 -15 776 64 1458 335 2063 819 156 125 425 393 548 548 565 707
850 1544 825 2428 -9 296 -34 498 -98 766 -276 1165 -1108 2129 -2233 2585
-289 117 -589 194 -941 241 -104 14 -596 27 -675 18z m625 -779 c547 -76 1039
-286 1465 -625 134 -107 343 -315 450 -450 194 -243 375 -565 475 -845 185
-514 223 -1086 109 -1628 -130 -616 -467 -1188 -943 -1599 -212 -184 -399
-307 -646 -428 -298 -146 -571 -228 -916 -276 -175 -25 -586 -25 -759 -1 -547
77 -1017 275 -1450 611 -123 95 -367 335 -464 456 -190 238 -383 580 -481 855
-236 658 -232 1385 11 2040 99 266 289 599 471 825 97 122 320 343 443 440
435 346 982 574 1505 629 55 6 116 13 135 15 76 9 491 -4 595 -19z"/>
<path d="M4805 7597 c-90 -35 -160 -103 -191 -183 -18 -47 -19 -95 -19 -1394
l0 -1345 24 -60 c16 -39 41 -76 75 -110 46 -45 74 -60 281 -147 127 -54 372
-159 545 -234 507 -219 1310 -564 1375 -591 237 -99 477 151 391 405 -33 96
-74 126 -328 234 -250 108 -1016 438 -1268 547 -91 40 -236 102 -322 138
l-158 67 -2 1225 -3 1226 -23 50 c-51 111 -165 186 -282 184 -36 0 -78 -6 -95
-12z"/>
</g>
</svg>
