<?xml version="1.0" standalone="no"?>
<!DOCTYPE svg PUBLIC "-//W3C//DTD SVG 20010904//EN"
 "http://www.w3.org/TR/2001/REC-SVG-20010904/DTD/svg10.dtd">
<svg version="1.0" xmlns="http://www.w3.org/2000/svg"
 width="626.000000pt" height="626.000000pt" viewBox="0 0 626.000000 626.000000"
 preserveAspectRatio="xMidYMid meet">

<g transform="translate(0.000000,626.000000) scale(0.100000,-0.100000)"
fill="#000000" stroke="none">
<path d="M3011 5249 c-54 -17 -75 -32 -126 -82 -59 -60 -66 -75 -299 -570
-233 -494 -268 -557 -308 -557 -52 0 -1115 -144 -1149 -155 -145 -51 -237
-197 -227 -361 9 -144 2 -135 590 -687 264 -248 318 -303 324 -331 4 -23 -26
-199 -91 -542 -124 -651 -117 -608 -104 -679 36 -204 247 -338 442 -281 51 15
322 159 842 449 154 86 186 101 225 101 40 -1 100 -31 529 -268 267 -146 509
-274 540 -282 215 -63 443 109 443 336 1 41 -36 258 -102 598 -69 362 -100
545 -96 567 5 27 38 63 159 177 84 79 269 254 411 388 143 135 272 262 288
284 128 177 37 459 -172 531 -25 8 -292 47 -595 85 -302 39 -557 73 -566 75
-9 3 -25 16 -37 28 -12 13 -130 252 -262 532 -237 506 -240 510 -300 567 -98
93 -223 120 -359 77z m184 -228 c35 -21 30 -12 321 -630 222 -472 237 -496
349 -547 53 -25 116 -35 620 -99 308 -40 571 -77 583 -84 59 -32 80 -124 40
-179 -13 -17 -204 -201 -426 -409 -364 -341 -406 -383 -433 -439 -55 -111 -54
-119 65 -742 102 -533 105 -554 90 -590 -18 -46 -54 -73 -104 -79 -34 -5 -59
6 -247 109 -604 333 -750 412 -792 431 -65 30 -197 30 -262 1 -25 -12 -259
-139 -521 -283 -293 -161 -486 -261 -503 -261 -49 0 -96 30 -116 75 l-19 42
106 554 c119 624 120 632 65 743 -28 57 -68 98 -433 440 -222 207 -413 391
-425 408 -44 60 -18 155 50 182 17 7 273 43 567 80 294 37 556 74 581 82 64
20 129 64 167 111 17 22 127 244 245 494 118 250 227 480 242 513 44 91 119
121 190 77z"/>
</g>
</svg>
